<?xml version="1.0" encoding="utf-8"?>
<!-- Generator: Adobe Illustrator 24.0.1, SVG Export Plug-In . SVG Version: 6.00 Build 0)  -->
<svg version="1.1" id="Camada_1" xmlns="http://www.w3.org/2000/svg" xmlns:xlink="http://www.w3.org/1999/xlink" x="0px" y="0px"
	 viewBox="0 0 1500 463" style="enable-background:new 0 0 1500 463;" xml:space="preserve">
<style type="text/css">
	.st0{fill:#FFFFFF;}
	.st1{fill:#1D262D;}
</style>
<g>
	<path class="st0" d="M48.44,68.62l13.48-0.28l17.98,1.12l3.65,0.28l2.25,0.56l1.69,2.25l1.12,2.81l1.12,3.93l2.81,9.27l1.4,4.49
		l6.74,14.61l1.69,4.49l5.62,14.89l1.69,4.49l5.62,17.7l1.69,4.49l6.18,17.42l7.02,22.47l1.4,3.09l1.97,1.12l2.53-1.12l1.69-3.09
		l6.74-17.42l1.4-4.49l4.49-18.26l1.4-4.49l7.87-16.85l1.4-4.49l4.78-15.45l1.4-4.21l7.02-14.89l1.4-4.21l2.81-10.39l1.69-4.78
		l2.25-3.65l1.97-1.12l3.37-0.56h1.97l4.49-0.28l7.02,0.56h17.98l12.92-0.84l5.06,0.56l3.37,0.84l1.69,1.69l0.84,2.53l-0.84,3.65
		l-0.84,2.53l-1.69,4.49l-3.93,7.58l-1.97,4.21l-5.06,15.73l-1.97,4.21l-7.3,14.89l-1.97,4.21l-5.06,15.45l-1.69,4.49l-5.9,15.17
		l-1.69,4.49l-6.18,15.17l-1.97,4.21l-7.58,14.89l-1.97,4.21l-6.18,15.17l-1.69,4.49l-6.74,14.61l-1.69,4.49l-6.46,15.17l-1.12,3.09
		l-1.69,1.12l-3.37,0.28l-20.51-0.28l-4.49,0.28l-15.73,1.4l-4.78,0.28l-3.65-0.56l-1.97-1.97l-1.69-3.37l-6.18-14.89l-1.69-4.21
		l-7.3-15.45l-1.69-4.21l-6.18-14.89l-1.69-4.49L74,193.62l-1.69-4.49l-6.74-14.89l-1.69-4.21l-7.3-15.45l-1.69-4.21l-5.62-15.17
		l-1.97-4.49l-6.74-14.61l-1.69-4.49l-5.06-15.73l-1.69-4.21l-5.06-8.15L25.4,79.3l-0.84-2.53L24,73.12l0.84-2.53l1.97-1.69
		l3.09-0.84l1.69-0.28h4.21L48.44,68.62z M62.48,143.9l-0.84,0.56l-0.28,0.84l0.28,0.84h0.84l0.84-0.56v-1.12l-0.28-0.56H62.48z
		 M71.47,144.18l-0.28,0.56v0.56l1.69,0.56l0.28-0.56l-0.28-0.56l-0.84-0.56H71.47z M71.75,126.21v1.4l1.69,1.97v-1.97l-0.84-1.4
		H71.75z M72.6,154.01l-0.56,1.12l0.28,1.4l0.56,1.12l1.4,0.28l0.56-1.4l-0.28-1.4l-0.84-1.12H72.6z M78.78,134.07l-0.28,0.56v0.84
		l0.56,0.28l0.56-0.28l0.84-0.56l-0.28-0.84l-0.56-0.56L78.78,134.07z M88.89,148.4l-2.81,1.4l-3.09,1.12l-0.56,0.84l-0.56,0.56
		l-1.4-0.84h-1.69l0.84,2.53l2.25,0.56l3.37-2.81l1.69-0.28h1.69l1.69-0.84l0.56-1.69l-0.84-0.84L88.89,148.4z M84.11,174.24
		l0.56,1.4l1.4,0.28l0.84,1.12l-0.84,0.84l-1.69,1.4l-1.4,1.69l-1.69,0.56v1.97l-1.12,1.12l-1.4,1.12l1.97,3.37l3.09,2.81v-2.81
		l-0.84-1.97v-4.21l0.28-0.84v-0.56l3.93-1.69l3.09,0.84l3.37-0.84l3.09,2.25l1.12-1.97l-0.28-2.81l-2.53-0.56l-1.97-0.56
		l-0.28,1.97l-2.25,0.28l-0.84-2.25l-0.56-1.97l-1.97-0.84l-1.97-0.28L84.11,174.24z M79.9,140.81v1.97l0.84,1.69l-0.84,1.4
		l-0.28,1.69l3.37-2.25l-1.4-3.37l-0.56-1.12H79.9z M80.18,170.59l0.56,1.12l0.84,0.84h1.12l0.84-0.56v-0.84l-1.12-1.12l-1.4-0.28
		L80.18,170.59z M81.02,175.08v1.12l0.56,0.56l0.84-0.84l-0.56-1.12l-0.56-0.56L81.02,175.08z M85.52,186.6l1.12,3.93l1.97,1.4
		l1.12-1.97l0.56-3.37l-0.28-2.25l-1.97-0.56L85.52,186.6z M88.61,139.13l-0.56,0.56l-0.28,0.56l0.56,0.56h0.84l0.56-0.56l0.28-0.56
		l-0.84-0.56H88.61z M90.01,154.58v0.84l0.84,0.84h1.4l0.56-0.28v-0.84l-0.84-0.84l-1.4-0.28L90.01,154.58z M91.14,191.94
		l-0.28,0.56l2.81,3.37l0.84,0.84l0.84-0.28l0.56-0.56l0.56-0.84l-0.28-0.84l-1.12-0.28l-3.93-2.25V191.94z M96.19,155.14l0.56,1.69
		l-0.84,0.84l-1.12,0.56l-1.12,1.4l-1.12,1.12l3.09,0.56l2.81,1.4v1.4l1.12,0.28l0.84-0.84l-0.84-1.12v-1.69l-0.56-1.4l1.12-1.12
		l-0.28-1.69l-1.12-1.4l-1.4-0.84L96.19,155.14z M94.23,173.4l-0.28,0.56v0.56l1.97,1.12h2.25l1.69,1.12l1.4,1.4l1.4,0.56l1.12-0.56
		l0.56-1.12l-0.28-1.12l-1.12-0.56l-1.12,0.84h-1.4l-0.84-1.4l-2.53-1.4H94.23z M93.94,188l0.84,4.21l0.56,0.56l1.69,0.84l1.4-1.12
		l-0.56-1.69l-1.12-2.53v-2.81L93.94,188z M95.35,164.41l-0.84,0.28l-0.28,0.84l0.84,1.12h1.4l0.56-0.84l-0.28-1.4l-0.56-0.56
		L95.35,164.41z M95.07,204.86l-0.56,0.28v1.12l2.25,1.12v-1.69l-0.56-1.12L95.07,204.86z M100.69,168.62h-0.84l-1.69,0.84
		l-0.84,1.97l0.56,1.12l1.69-0.28l0.56-1.4l0.56-0.56l0.56-0.28h1.4l0.56-1.4l-1.4-0.84L100.69,168.62z M97.88,200.92l0.28,1.69
		l0.56,0.84l1.12,0.84l0.84-1.4v-1.97l-1.12-0.56l-0.84-0.28L97.88,200.92z M98.44,181.54v1.69l0.28,0.28h0.56l1.12-1.12l-0.56-1.69
		L98.44,181.54z M103.5,201.49l3.93,1.69l2.25-0.56l0.84-2.53l-1.12-1.69h-1.97l-3.37-0.28l-4.21-0.28L103.5,201.49z M100.41,190.81
		l3.37,4.78l0.28-2.53l-2.53-1.12l0.56-1.69l0.56-1.4L100.41,190.81z M104.34,170.03l0.28,1.69l-0.56,1.69l1.12,1.69l1.69,0.84
		l1.12-1.4l1.12-0.28l0.84-0.56h1.4l0.84-0.56l-0.56-0.84l-1.12-0.56l-2.25-1.4l-2.53-0.56L104.34,170.03z M104.9,182.1l0.28,0.84
		l0.56,0.84h0.84l0.56-0.56l-0.28-0.84l-0.56-0.84l-0.84-0.28L104.9,182.1z M105.46,205.7l0.56,0.56h0.56l0.84-0.84l-1.12-0.56
		L105.46,205.7z M106.58,218.9l0.56,1.4l1.12,0.56l-0.28-1.4l-0.84-1.12L106.58,218.9z M110.8,175.92l0.56,0.84l-1.12,0.56
		l-1.4,0.84l-0.84,1.12l-0.56,0.84l5.62,1.12v-1.4l-0.56-1.4v-2.25l-1.97-1.4L110.8,175.92z M108.55,190.53l1.4,2.81l0.28,2.25
		l1.4,1.97l0.28-1.97v-1.69l-0.56-0.56l-0.56-0.28v-3.65l-3.37-1.97L108.55,190.53z M110.24,184.35l0.84,1.69h0.84l0.56-0.28
		l-0.84-1.69l-1.4-1.69V184.35z M111.92,203.45l-0.28,0.84l-0.28,0.28l1.12,0.56h0.84v-1.12l-0.84-0.56H111.92z M113.89,211.6
		l0.56,1.97l0.56,0.56l0.84-0.28l-0.28-1.97l-0.28-3.09L113.89,211.6z M115.57,191.09l-1.4,0.56l0.56,1.69l1.97-0.28l0.56-1.69
		l-0.84-0.56L115.57,191.09z M116.42,196.43l-1.4,1.69l0.28,0.56l0.84,0.56l1.69-0.84l0.84-1.97H116.42z M116.98,216.66l-0.28,0.56
		v0.28l0.56,0.84l0.84,0.28l0.28-0.56v-0.56l-0.56-0.84H116.98z M121.47,223.68l-0.84,1.12l0.28,1.69l1.12,0.28l1.12-0.56H124
		l1.12,0.28l-0.28-0.84l-0.28-0.56h-0.28l-1.4-0.56v-0.28l-0.56-0.84L121.47,223.68z M130.46,217.5l-0.28,0.28v0.56l0.28,0.28h0.28
		l0.28-0.28v-0.84H130.46z M133.55,220.87l-0.56,0.84l-0.56,0.56v0.56l-0.28,0.28h-0.84l-0.28-0.28h-0.28l-0.56,0.28v0.56l0.28,0.84
		l0.56,0.56h0.56l0.28-0.28l0.28-0.56l0.56-0.28l0.56-1.12h0.56l0.28-0.28l0.56-0.28l0.28-0.56l-0.28-0.56v-0.28H133.55z
		 M135.52,209.35l0.28,0.28h0.28l0.28,0.28h0.28l-0.28-0.28h-0.28l-0.28-0.28H135.52z M143.1,218.9l0.28,1.12v0.84l0.84,3.37
		l0.28,0.56l0.56-0.28v-1.12l0.28-0.56l0.28-0.84l0.28-0.28l0.56-0.28l-0.56-1.12l-0.28-0.84l-0.56-0.56h-0.84l-0.56-0.28
		l-0.28-0.28L143.1,218.9z M143.94,209.63v0.84l0.84-0.84l-0.28-1.12L143.94,209.63z M145.63,250.92l0.56,1.12l0.56,0.84h0.28
		l0.56-0.56v-1.12l-0.28-0.56l-0.28,0.28l-0.56-0.56l-0.84-0.56V250.92z M154.06,218.62v0.84l0.28,0.56l0.28,0.28h1.12l0.56-0.56
		l0.56-0.28l-0.28-0.56l-0.84-0.84l-0.84-0.28L154.06,218.62z M162.48,229.86l-0.84,0.56l-0.84,0.84l-0.84,2.25l-0.56,1.12
		l-0.84,1.97v1.69l1.12-0.56l0.56-2.53l0.56-0.56l0.28-0.84l1.4-1.12l0.84-2.25l-0.28-0.56H162.48z M162.2,216.94l1.69-0.28
		l1.69,0.56l1.12,0.56l1.12-1.12l-0.84-1.4l-0.28-0.28l-2.81-0.28L162.2,216.94z M167.54,143.62l-0.28,1.12l-1.12,0.56l-0.28,0.84
		l1.12,0.28l0.56-0.84l0.84-1.4l-0.84-1.69V143.62z M168.66,195.59l-0.56,1.12l-0.28,1.12h1.4l0.56-0.28l0.84-1.12l-0.56-0.84
		H168.66z M173.16,152.61l-0.28,0.28l-0.56,0.28l-0.84,1.12l0.84,1.12l1.12-0.28l0.84-1.4l0.28-1.12H173.16z M173.44,204.86
		l-0.84,1.12l0.84,1.69v-1.12l0.28-0.84l1.12-0.56l0.28-0.84l-0.84-0.28L173.44,204.86z M172.88,132.39l0.84,1.12v0.28l0.28,0.28
		h3.09l1.69-2.53l-1.97,0.28l-1.97-0.28l-1.12-0.56L172.88,132.39z M176.53,116.94l0.28,1.12l-0.28,0.56l-0.28,0.28l-1.12,0.84v1.12
		l0.28,0.28h0.56l1.4-0.56l0.28-1.4v-0.84l0.84-1.12l-0.84-0.84L176.53,116.94z M185.24,127.61l-1.12,0.84l1.4,1.4h1.12l0.84-0.84
		l-0.56-0.84l-0.28-0.56H185.24z M187.76,100.36l-0.56,0.56l0.28,1.4v1.12l0.84,0.28l0.84-2.53l-0.84-0.84H187.76z M197.03,120.31
		l0.28,0.84l-0.28,1.12l-0.28,0.84l-0.84,0.84l0.56,1.4l1.12,0.56l1.4-0.56h1.12l0.28-1.12l-0.56-1.97l-1.69-2.53l-0.56-0.28
		L197.03,120.31z M198.16,137.72l0.28,1.12l0.56-1.12v-0.84L198.16,137.72z M207.71,134.63v0.84l0.28,0.56h0.56l0.28-0.28l0.28-0.56
		l-0.56-0.56H207.71z M211.08,104.58l-0.56,0.84l-0.28,1.69v0.56l-0.28,0.56v0.28l-0.84,0.84v1.4l0.28,0.56h0.28l0.28-0.56
		l0.56-0.56v-0.28l0.28-0.84l0.28-1.12v-0.84l0.84-0.84h1.12l0.28-0.84l-0.28-0.84l-0.84-0.28L211.08,104.58z M216.42,95.59v1.4
		l-0.84,0.56l-0.84,0.84l1.69,0.28l1.4-0.84h1.4l0.28-0.56l-0.56-1.4l-1.4-1.12L216.42,95.59z M216.42,108.51v0.56l1.12,0.56
		l0.56-0.28v-0.56l-0.28-0.28H216.42z M230.74,88l1.4,0.84h1.69v-0.56l-0.28-0.56l-1.4-0.28L230.74,88z"/>
	<path class="st0" d="M425.12,167.78l-0.28,4.49l-0.56,6.46l-0.56,4.21l-1.69,8.43l-0.56,6.46l-0.56,4.21l-0.84,4.49l-1.12,4.21
		l-2.81,5.9l-1.97,3.93l-7.58,12.64l-2.53,3.65l-2.81,3.65l-2.81,3.09l-4.49,4.78l-3.09,2.81l-3.65,2.81l-3.37,2.53l-5.06,3.37
		l-3.65,2.25l-4.21,2.25l-3.93,1.69l-5.62,2.25l-4.21,1.12l-8.99,2.81l-4.78,1.4l-4.49,1.12l-4.78,1.12l-4.78,0.84l-4.78,0.28
		h-15.17l-9.55-0.56l-9.27-1.12l-3.93-0.84l-4.21-1.12l-15.17-5.06l-4.49-1.4l-4.77-1.97l-8.99-3.93l-4.21-2.25l-4.21-2.53
		l-3.65-2.81l-3.65-3.09l-3.37-3.65l-3.09-3.65l-7.58-7.58l-2.81-3.37l-2.81-3.65l-2.25-3.65l-2.25-5.62l-4.21-12.64l-1.69-5.9
		l-0.84-4.21l-0.84-4.49l-0.84-4.21l-0.84-6.18l-0.28-4.21l-0.28-4.78v-4.78l0.28-4.78l0.28-5.06l0.56-4.77l0.84-4.78l1.12-4.78
		l1.4-4.78l1.4-4.21l1.69-4.49l1.97-6.46l1.97-4.49l1.12-2.53l2.25-4.21l3.93-6.18l2.81-3.93l1.4-2.25l3.37-3.37l4.78-3.93
		l3.65-2.81l3.65-2.53l8.43-5.62l3.65-2.25l3.93-2.25l3.93-1.97l5.9-2.53l3.93-1.4l4.21-1.4l4.21-1.12l10.67-1.97l4.21-0.84
		l14.04-1.69l8.99-0.56l8.43,0.56l6.74,0.28l4.78,0.56l4.77,0.84l4.78,1.12l4.78,0.84l4.49,1.12l4.21,1.12l4.21,1.4l5.9,2.25
		l3.93,1.69l9.27,5.34l3.65,2.53l3.65,2.81l4.78,4.49l3.09,2.81l3.09,3.09l2.53,3.37l3.93,5.34l2.25,3.65l1.97,3.65l2.25,3.65
		l3.09,5.62l2.25,3.65l1.97,4.21l1.4,3.93l1.4,6.46l1.69,8.43l0.56,4.78l0.84,4.78L425.12,167.78z M220.34,199.8l-1.12-1.12
		l0.28,1.12v0.84l-0.56,0.84v0.84h0.56L220.34,199.8z M220.63,178.17h0.84l0.56-1.12v-1.97l0.28-1.12l-0.56-0.56l-0.56,0.56
		l0.28,1.12l-0.28,0.56v0.28l-0.56,1.12V178.17z M224.28,188.85l0.56-2.53l-1.12,0.84h-2.25l-0.28,1.4l0.56,0.84h0.28l0.28,0.28
		L224.28,188.85z M225.68,206.82l-0.28-1.12l-1.12,1.12l-0.56,1.12l0.84,0.84l0.84-0.56L225.68,206.82z M225.68,162.44l0.56-0.28
		v-1.4h-0.84l-0.56,0.56l0.28,0.56L225.68,162.44z M227.65,230.98l-0.56-1.12l-0.56-0.84l-0.56-0.28v0.84l0.28,0.56l0.56,0.84
		l0.56,0.28h0.28V230.98z M229.05,182.95l0.84-0.28l0.28-0.84l-0.28-0.56l-0.56-0.56l-0.84,0.56l-0.56,0.84l0.56,0.56L229.05,182.95
		z M228.77,126.21l0.84-1.12l0.28-1.12l-0.28-0.28h-0.28l-0.56,1.12V126.21z M230.74,209.63l-0.28-0.56h-0.28l-0.56,0.28l-0.28,0.84
		l0.28,0.56h0.56l0.56-0.28V209.63z M232.42,140.25v-0.28l0.28-0.84l-0.28-0.56h-1.12l-0.84,1.12l0.28,1.12l0.84,0.56l0.56,1.69
		l0.56-1.4L232.42,140.25z M236.36,176.21l0.84-0.84l0.56-0.28v-1.12l-0.56-1.4l-1.12-1.12l-0.28-0.84h-0.56l-0.28,0.84l0.28,0.84
		v1.69l-0.28,1.12l0.56,0.84L236.36,176.21z M235.23,148.12l1.4,1.4l0.84,0.56l0.56,1.4l0.84,1.12l0.56-0.56l-0.56-1.97l-1.4-1.12
		l-0.56-0.28l-0.28-0.84v-0.84l-0.28-0.84l-0.56,0.28l-0.28,0.56L235.23,148.12z M238.6,237.16l-0.28-1.12l-0.84-0.84h-0.84
		l0.56,1.12L238.6,237.16z M238.6,217.78l-0.56-0.84h-0.84l-0.28,0.56l0.28,1.12l0.56,0.84l0.84,0.28l0.56-0.84L238.6,217.78z
		 M257.42,236.88l1.97-1.97l-1.12-2.53l-1.12-1.12v-0.28h-1.97l-0.84-0.28l-0.84-0.56l-0.28-0.28l-0.28-0.56l2.81-0.56h1.12v-1.12
		l0.84-0.84l0.28-1.12l1.69-1.4l2.53-0.28l0.28,0.28h0.28l0.28-0.28l0.28,0.28h0.28v1.12l0.28,0.56h-1.12l-0.84,0.84v0.28l0.28,0.28
		l0.28,0.56h1.4l0.84-0.56h0.84l0.56,1.12l0.28,1.12l0.28,0.28v0.28l0.56-0.28l1.12-0.28l0.56-0.56h1.12l0.28-0.84l-0.84-0.56
		l-0.56-0.28l-0.56-0.56l-0.28-0.56l-2.53-2.81l-0.56-0.28h-0.84l-0.28,0.28v-0.56l-0.28-0.28l-0.84-1.12l-0.56,0.28l-0.28,0.28
		l-0.84-0.28l-1.12,0.28v-0.28l0.56-0.84l-0.56-1.12l-0.84-1.97l-0.56-1.97l-1.4,0.56l0.56,1.97l0.56,1.4l-0.28,1.12v1.12l0.56,1.12
		l-2.25,2.25l-0.56,0.28l-1.97-0.56l-0.84,1.4l-0.56-0.56l-2.25,1.4l-0.56,1.97l0.56,1.4l1.4,0.56v0.56l-0.84,1.69l-0.56,1.69h-1.97
		l-1.4-1.97l0.84-0.84h0.84l0.56-0.56l-0.84-0.56l-0.84-0.28l-1.4-0.56l-1.12-0.28h-0.84l-1.69-0.56l-0.56-0.28l-0.28,0.28h-0.28
		l-0.56-1.12h0.84l0.28-1.12h0.28v-0.28l0.56-0.84l0.28-1.4h1.4l2.53,0.56l2.25-1.12l-1.4-1.69l-0.56-1.69v-0.28h-0.28l-0.28-0.28
		l-0.56-0.28h-1.4l-0.28,0.28l-0.28,0.56v0.84l0.28,0.56h0.84l0.56,1.12l-0.84,0.56l-1.12-0.56h-0.84l-1.69,0.84l-0.28,0.84v0.84
		h-1.12l-0.84,0.28l-0.56,1.69l0.28,0.56v0.28l0.56,0.84l-1.12-0.28h-0.84v0.56h0.28l1.12,0.56l0.84-0.28l0.84,0.56l0.56,0.84h0.28
		v0.56l0.84,1.4l1.69,1.4v0.28l0.28,0.28l-0.56,1.69l0.56,1.97l0.56,0.56l0.28,0.56l0.28,0.28l-0.56,0.56v0.84l1.97,1.4h0.28
		l0.56-0.28l0.84-0.28l0.28,0.28l0.56,0.28l0.84,0.56l0.56,0.56l0.28,0.84l0.56,0.84l0.28-0.84l0.28-0.56l-0.28-1.4l-0.56-0.84
		l-0.84-0.84h1.4l1.12-0.28l1.69-1.4l-1.12-0.56h-0.28l-0.56-0.28l-0.28-0.28l-1.4-0.28h-1.12l-1.69-0.56v-0.28h-0.28l-1.12-1.12
		l2.53-0.28l0.28,0.28h1.12l1.4,0.28l0.28,0.28l1.69,0.56l0.28,0.28l0.56,0.28l0.84,0.28l1.69-0.28l0.28-1.12V236.88z
		 M239.17,187.44v-1.12l-0.28-0.84l-0.28,0.84L239.17,187.44z M239.17,144.46l0.28,0.28l0.28-0.28l0.28-0.56v-0.56l-0.56-0.28
		l-0.28,0.28V144.46z M240.29,202.33l-0.28,0.56v0.56l0.56,0.28l0.56-0.56v-0.56l-0.56-0.28H240.29z M241.13,214.97l0.84,2.25
		l1.4,0.28h0.28l0.28-0.56l0.56-0.28l0.84-0.84l1.12-0.28h1.12l1.12-0.56v-0.56l0.28-0.56l-0.56-0.84l-0.84,0.28l-1.69,0.84
		l-1.97,0.84l-0.56,1.12l-1.12-0.84L241.13,214.97z M241.97,210.19l-0.56,1.12l0.28,1.12l1.69-1.69l-0.84-2.53l-0.56-0.84h-0.56v1.4
		L241.97,210.19z M244.5,181.82l0.28,0.56l0.56-0.56v-0.84l-0.56-0.28l-0.28,0.28V181.82z M247.87,228.45l-1.12-0.56h-0.84
		l-0.28,0.56l0.56,0.84l0.84,0.56l0.84-0.28l0.28-0.56L247.87,228.45z M246.47,207.39l0.28,0.28h0.56l0.28-0.28l0.28-0.56
		l-0.56-0.28h-0.56l-0.28,0.28V207.39z M249.28,216.37H249l-0.56,0.28v0.28l-0.28,0.28l0.84,0.28h0.28l0.28-0.28l0.56-0.28
		l-0.28-0.28L249.28,216.37z M250.68,220.03l2.25-0.28l2.25,0.56l0.28,0.84h0.84v-0.56l-0.56-0.56l-0.56-1.12l-0.56-0.84l0.28-1.12
		l-0.56-1.12l-1.12-0.84h-0.56l-0.84,0.84l0.28,0.28l0.28,0.56l-0.28,0.84l-0.56,0.56l-0.28,0.84L250.68,220.03z M257.14,241.66
		l-0.84-0.84h-0.56l0.56,1.12l0.28,0.28h0.56V241.66z M366.13,167.78l-0.28-4.78l-0.28-4.49l-1.69-8.43l-1.12-3.93l-3.09-6.18
		l-2.25-3.65l-3.93-5.06l-2.81-3.09l-4.21-4.49l-3.09-2.53l-7.3-4.21l-3.93-1.69l-4.49-1.4l-4.49-0.84l-8.99-0.56l-4.21,0.28
		l-6.18,0.28l-4.21,0.84l-7.3,1.97l-4.49,1.69l-6.46,3.37l-3.93,2.53l-4.49,3.93l-3.09,3.37l-3.09,4.21l-2.25,3.65l-0.84,1.69
		l-2.53,5.9l-1.4,4.21l-0.84,1.97l-0.84,3.93l-0.56,3.93l-0.28,3.93l-0.28,4.21v4.21l0.28,4.49l0.84,4.49l0.28,2.53l1.12,4.21
		l0.56,1.97l1.4,3.93l1.12,2.25l2.25,3.93l1.4,2.25l3.09,3.93l1.69,1.97l3.37,3.37l5.62,4.78l3.93,2.53l4.49,2.25l4.21,1.69
		l5.9,1.97l4.21,0.84l7.02,0.84l4.78,0.28l7.02-0.56l4.49-0.56l6.18-1.4l3.93-1.69l6.18-3.93l3.37-2.53l4.49-4.49l2.81-3.09
		l3.65-4.49l2.53-3.93l2.81-6.18l1.69-4.21l1.4-6.46l0.56-4.21l0.56-6.74V167.78z M268.66,248.68l-0.28-0.56v-0.84l-0.84-1.12
		l-0.56-0.84h-0.84l-1.12,0.28h-1.12l0.56,1.4l-1.12,0.84l-1.69-1.12l-0.84-1.4h-1.69l-1.12,0.28l-0.28,1.12l0.84,0.84l0.84-0.28
		l0.84,0.56v0.84l-0.56,1.12l-0.28,1.4l-0.56,0.84l0.56,1.12l-0.56,2.25l3.93,2.81h0.28l2.53,0.56l1.69,0.28h0.56l-0.28-0.28
		l-0.84-0.56l-1.4-1.12l-1.4-0.56l-0.84-0.56l-1.69-1.97l-0.56-0.56v-0.28l-0.56-0.84v-0.28l-0.28-0.56l0.84-1.12l0.84-0.84
		l1.12-0.28h1.12l0.84-0.56l0.84-0.84l2.53,1.12L268.66,248.68z M259.39,241.94v0.28l0.28,0.28l1.69,0.28l1.12-0.56l1.4,0.28
		l1.4,0.56h1.12l0.56-0.84l-0.28-0.56l-0.56-0.84h-0.84l-0.28,0.84l-0.84,0.28l-1.12-0.56l-1.97-0.28L259.39,241.94z M259.95,231.82
		l1.12,0.56l0.56-0.56l0.28-0.56l-0.84-0.84h-0.56l-0.84,0.84L259.95,231.82z M269.22,239.97l-0.28,0.84l0.56,1.12h0.28l0.28-0.28
		v-0.28l0.28-0.56L269.22,239.97z M273.72,250.36l0.28-0.28v-0.56l-0.28-0.56l-0.56-0.56l-0.84,0.28l-0.56,0.28h-1.12l-0.84,0.28
		h-0.84v0.28l0.28,0.28h1.12l0.84,0.28l1.69,0.28H273.72z M272.59,263.57v-0.84l0.84-0.56l-0.56-0.84h-1.12v1.12h-0.28l-0.28,0.28
		l-0.28,1.12l0.56,1.12l0.56,0.28h0.28l0.56-0.56L272.59,263.57z M273.72,238.85l-0.56-0.56l-0.28,0.28h-0.28v0.56l0.56,0.56
		l0.56-0.28V238.85z M274,244.18l-0.28-0.56v-0.28l-0.28-0.28v1.97l4.21,0.84l-1.12-1.12l-1.97,0.28L274,244.18z M274,239.97
		l0.56,0.28h0.28l0.28,0.28h0.28l2.25,1.12l-1.97-1.4l-0.28-0.28H274z M279.33,258.23l-0.28-0.84l-0.84-0.28l-0.84-0.56l-1.97-0.56
		l-1.4-1.4v2.25l2.53,1.69h0.28l0.28,0.28h0.28l1.69,0.28l0.28-0.28V258.23z M276.24,231.54l-1.12,1.69v1.12l0.56-0.28l0.56-0.28
		l0.56-0.56l0.28-0.56v-0.28l0.28-0.28h-0.28v-0.56l-0.56-0.56l-1.69-0.56l0.56,0.56L276.24,231.54z M277.65,233.79h-0.28
		l-0.28,0.84v0.28h0.28l0.28,0.28l0.84,1.12l1.4,0.28l1.12-0.28v-0.84l0.56-1.69l0.84-0.28l-0.28-0.84h-1.4l-1.97,0.28l-0.56,0.56
		L277.65,233.79z M283.55,247.27l0.28-0.84l-0.28-0.56l-0.56-0.56l-0.84-0.28h-0.28l-0.84,0.84l-1.69,1.4l-2.25,1.4l1.69,0.28h1.97
		l1.12-0.28l1.4-0.84L283.55,247.27z M278.49,229.86v0.28l0.28-0.28v-0.28l0.28-0.28h-0.28l-0.84-0.56l0.28,0.84L278.49,229.86z
		 M281.02,254.86l-0.56-0.56l-0.56-0.28l-1.12-0.28l-0.28,0.28h-0.28v0.56l0.84,0.56h1.12L281.02,254.86z M282.14,238.28h-0.56
		l-0.56,0.56l-0.28,0.84l1.4,0.56l0.84-0.84L282.14,238.28z M284.11,241.66l-0.28,0.56h0.56l0.28-0.28l0.28-1.12l-0.28-0.56v-0.56
		l-0.28,0.28l-0.56,0.84L284.11,241.66z M284.67,249.8l0.28-0.28v-0.28l-0.28-0.56l-0.56,0.28l-0.28,0.28v0.28l0.28,0.28H284.67z
		 M290.29,264.69l-0.56-1.4l-0.84-0.84l-1.12-0.56l-1.4-0.84l-1.4,0.84l0.84,2.25l2.81,0.84L290.29,264.69z M286.08,246.43
		l0.56-0.28l0.28-0.56h-0.28l-0.28-0.28h-0.84v0.56L286.08,246.43z M291.41,251.49l-1.69,1.97l-1.97,0.84l2.81-0.28L291.41,251.49z
		 M291.13,247.83l1.69,0.56h0.56v-0.56l-1.4-0.56l-1.97-1.12L291.13,247.83z M295.63,252.33l-0.56-0.56l-0.56-0.28h-1.97l1.97,0.84
		H295.63z M302.37,242.78l-1.4-0.84l-1.12-0.56h-0.28l-0.56,0.28l-2.25-1.12h-0.28l-0.56,0.56l-1.12,0.28l0.84,0.28l0.28,0.28h0.56
		l2.53,0.28l1.4,0.56H302.37z M297.03,248.4l-0.56-0.56h-0.84v0.28l-0.28,0.28l0.28,0.28h0.84L297.03,248.4z M296.47,236.04v-0.84
		l-0.84,0.56v0.84L296.47,236.04z M301.52,249.8l-0.56-1.12l-0.56-0.56l-1.4-0.28l-0.56,0.84l0.56,1.12l1.4,0.28L301.52,249.8z
		 M307.99,240.81l-1.12,0.28l-0.84,0.28l-0.84-0.84h-0.84v0.84l1.12,0.56l1.4,0.28L307.99,240.81z M307.99,250.92l-0.56-0.84
		l-1.4-0.56l-0.56,0.28l-0.84,0.28l0.56,0.84l0.84,0.28h0.84L307.99,250.92z M320.63,246.99l-0.84-1.4l-0.28-1.69v-1.12l-1.12-0.56
		l-1.12,1.12v0.56l0.56,2.53L320.63,246.99z M322.31,265.81l-1.12-0.28l-0.84,0.84h1.12L322.31,265.81z M325.4,253.73l1.12-1.12
		l-0.56-1.12l-0.84-0.56l-0.56,0.84l-0.28,0.56l0.28,1.12L325.4,253.73z M327.09,273.12l-0.28-0.28h-0.84l-0.28,0.56l0.56,0.56h0.56
		l0.28-0.56V273.12z M329.61,242.5h1.69l0.28-0.28l1.12,0.28l0.56-0.84l-0.84-0.84l-0.84,0.56h-0.56l-0.28-0.28l-1.12-0.56
		l-1.12,0.28v0.84L329.61,242.5z M336.64,259.63l-0.84-0.28l-0.84,0.56h-1.69l-1.12-0.56l-0.84,0.84l-0.28,1.4l1.12,0.84l0.28,1.12
		l0.84-0.28l1.69-1.12l1.12-1.4l0.56-0.56V259.63z M341.69,246.43l-0.28-0.84h-0.28v-0.28l-0.28-0.28v1.12l0.28,0.56l0.28,0.28
		L341.69,246.43z M359.11,249.8l-0.56-0.56l-0.56,0.28l-1.12,0.28v1.12l0.28,1.4l0.28,1.12l-0.84,1.4l-0.28,1.69l0.56,0.28h0.28
		l1.12-1.97v-1.97l-0.56-0.84l0.56-0.84l0.84-0.56V249.8z M361.92,241.09l-1.12-1.12l-1.4-0.28l-0.84,0.84l0.28,1.4l-0.28,0.84
		l-0.56,0.84l1.69-0.28l0.84-1.12h0.28v-0.28l0.84-0.28L361.92,241.09z M364.45,251.21l-0.56-0.28l-0.56,0.28l-0.28,0.56v0.28
		l0.28,0.28l0.84-0.28l0.28-0.28V251.21z M371.19,229.3l-0.28-0.56l-0.28-0.28h-1.12l-1.12,1.12l1.4,0.28L371.19,229.3z"/>
	<path class="st0" d="M507.14,68.62l12.92,0.28l4.78,0.84l3.09,2.25l1.4,3.65l3.93,10.96l1.69,4.21l7.02,13.2l1.69,3.93l6.18,13.76
		l1.69,3.93l5.06,14.33l1.69,3.93l6.18,13.48l1.69,3.93l6.18,13.76l1.69,3.93l5.62,14.05l1.69,3.93l8.71,17.42l6.74,13.2l1.97,3.93
		l7.58,17.7l5.62,14.04l0.84,3.93l-1.97,3.09l-3.09,1.4l-3.65,0.56h-3.93l-6.46-0.56l-4.21-0.28H576.8l-17.42,1.12l-3.65-1.4
		l-1.69-1.97l-1.4-3.09l-8.71-23.6l-1.97-2.81l-2.53-0.56l-3.37-0.28l-16.85-1.12h-4.49l-21.07-0.56l-16.85-0.28h-4.21l-4.21,0.28
		h-12.92l-3.65,0.56l-2.25,1.4l-1.69,3.37l-6.46,19.1l-1.69,4.49l-3.09,3.65l-4.21,1.4h-4.49l-16.29-0.84h-4.49l-17.42,1.12
		l-3.65,0.28l-3.37-1.69l-2.25-3.09l0.28-3.65l0.56-2.25l1.69-4.49l3.93-8.71l1.69-4.21l7.02-15.73l1.69-3.93l7.3-15.73l1.69-4.21
		l6.46-15.17l1.69-4.21l7.58-15.73l1.69-3.93l10.11-23.03l7.87-16.85l1.97-4.49l6.18-12.64l1.97-4.49l5.34-12.92l1.69-4.21
		l5.06-11.52l1.4-3.09l2.81-1.69l4.21-0.84l12.92-0.56H507.14z M428.21,188.28l-0.56,0.56l0.56,2.25l0.56-0.28l0.84-0.56v-1.4
		l-0.84-0.56H428.21z M443.66,163.57l0.56,1.12l-0.28,1.12l-1.12,0.28l-1.97-0.56l-1.97-0.28l-1.69-0.84l-1.12,1.4l-1.69-0.28
		l-1.69-0.56l-0.56,1.97l-0.84,1.69l-0.28,3.93l2.25-1.69l1.69-2.53l2.53-1.69l1.12-0.56l3.37,1.69l1.4,2.81l2.25,1.97l0.28,1.69
		l0.28,1.97l1.69-0.56l1.12-0.84l0.84-0.84l-0.84-2.25l-0.84-1.4l-1.69,0.56l-1.4-1.12l1.12-1.97l1.12-1.69l-0.56-1.97l-0.84-1.4
		l-1.69-0.28L443.66,163.57z M433.26,188l-0.84,1.12l-0.28,1.12l0.28,1.12l1.4-0.28l1.12-1.12v-1.12l-0.56-0.84H433.26z
		 M436.07,170.59l-2.25,3.09l0.28,2.25l2.25-0.28l0.56-0.28l0.56-0.56l1.4-0.84l1.69-1.4l-0.84-1.97H436.07z M435.51,177.61
		l-0.28,0.28l-0.56,1.97l-0.28,1.12v1.12l-0.28,0.84l0.84,0.56h1.69l0.28-0.84l-0.28-1.12l-0.28-1.97l-0.56-1.97H435.51z
		 M434.95,210.76l-0.56,0.28l0.28,0.84v0.56h0.56l0.56-0.56v-0.56l-0.56-0.84L434.95,210.76z M434.95,196.15v0.56l0.28,0.56h1.12
		l-0.56-1.12H434.95z M436.63,205.42l-0.56,0.84l-0.56,0.56v0.28l0.28,0.56l0.56,0.28l0.56-0.56l0.56-0.84l1.69-1.97L436.63,205.42z
		 M436.63,192.22l0.56,1.69l0.56,1.4v0.56l1.97,1.12l1.12-0.56l1.12-0.28l0.56-1.69l-1.4-1.4l-1.97-2.53l-1.4-1.4l-1.12-1.69V192.22
		z M437.76,180.42l-0.28,0.28v0.28l0.28,1.12l0.28,0.84l1.69,0.28l0.28-0.84l0.56-0.56l1.12-2.25l0.84-0.84l1.12-0.56l-3.65-0.56
		L437.76,180.42z M439.72,199.24l-0.28,0.28l0.28,0.84l0.84,0.56l0.56-0.56v-0.84l-0.56-0.28H439.72z M441.97,160.76l-0.84,0.56
		l-0.28,0.28l0.28,0.56h0.84l0.56-0.56v-0.56l0.28-0.56L441.97,160.76z M441.69,184.35l-0.28,1.69l-0.56,2.53l1.97-0.84l-0.84-2.53
		l2.81-1.12l-2.81-0.56L441.69,184.35z M444.78,157.67l-0.56,0.84l-0.28,1.12l0.84,0.84l0.84,0.28l0.56-0.56l0.28-1.4l-0.84-1.12
		H444.78z M447.87,188l-0.56,1.12l-1.12,2.81l-1.4,1.4l-0.28,2.25l1.4-1.12l1.12-1.12v-1.12l2.25-1.97l-0.28-1.69l-0.28-1.97
		L447.87,188z M446.18,197.83l-0.28,0.84l0.28,0.84l1.69,0.56l1.69-0.56l-1.4-1.69H446.18z M446.18,177.89v0.56l0.28,0.28h1.69
		l0.84-1.4l-1.4-0.28L446.18,177.89z M449.55,194.46l-0.28,0.56l1.4,1.12l1.4-0.56v-0.84l-0.84-0.56l-1.4-0.56L449.55,194.46z
		 M450.4,169.46l-0.56,0.28l0.56,2.25l1.12,1.4v3.65l0.28,1.4l1.4,0.56l0.84-0.28l0.56-0.84l-0.28-1.12l-0.84-0.28l-0.84-1.12
		l0.28-1.4l-0.28-2.53l-1.97-2.25L450.4,169.46z M451.24,143.06l-0.56,0.84l-0.56,1.12l0.56,1.12h1.4l0.84-1.4l0.28-1.12l-0.84-0.84
		L451.24,143.06z M450.96,181.82l-0.56,1.69l0.28,0.56h0.84l0.28-0.56l0.28-0.84l-0.28-0.84H450.96z M452.08,129.86l-0.28,0.84
		l0.28,0.56l1.12,0.28l0.84-0.56l0.28-0.56l-0.28-0.56l-0.84-0.28L452.08,129.86z M452.36,186.88l-0.28,1.69l0.28,0.56h0.56
		l0.56-1.4l0.56-1.97L452.36,186.88z M454.33,170.59l-0.56,0.56l-0.28,0.56l1.12,0.84l1.69-0.28l0.56,0.28h0.56l0.84,1.12l1.4-0.56
		l-0.28-1.4l-1.4-0.28l-0.56-0.56l-1.4-0.84L454.33,170.59z M459.1,182.67l-0.56,0.84l-1.12-0.56l-1.4-0.56h-1.12l-1.12,0.28
		l0.56,1.12l0.84,1.12l1.4,2.25l1.12-0.84l0.56-1.12l1.4-1.12l-0.28-2.25L459.1,182.67z M458.26,175.92l-1.69,0.56l-0.56,1.69
		l0.56,1.69h1.4l1.12,0.56l0.84,0.56l0.84,0.84h0.84l0.28-0.56l-0.28-1.12l-0.28-2.25l-1.12-2.25l-1.12-0.84L458.26,175.92z
		 M456.58,164.97l-0.28,1.12l0.84,1.12h0.84l0.84-0.84v-0.84l-0.84-0.28l-0.84-0.56L456.58,164.97z M456.58,148.12l0.84,1.69
		l3.93,1.12l2.25,2.25l1.4,0.84l1.69-0.56l0.28-1.12l-0.84-0.56l-2.81-1.4l-2.53-1.4h-0.84l-0.84-0.28l-0.28-1.4l-0.84-1.4
		L456.58,148.12z M458.26,137.16V138l0.28,0.56h0.56l0.28-0.56v-0.84l-0.56-0.56L458.26,137.16z M464.16,162.16l-1.12-0.28
		l-0.84-0.28l-1.69-0.28l-1.4-0.28l1.4,2.81l0.56,2.81l-0.84,0.56l0.28,1.12h1.12l0.28-1.12l1.12-0.84l0.84-1.12h1.4l1.12-0.84
		l0.56-1.69l-0.56-1.69l-1.12-0.28L464.16,162.16z M465,141.94l-0.84,1.69h-1.69l-1.4,0.84l3.93,1.12l1.69-2.81l0.28-1.12
		l-0.56-0.56L465,141.94z M462.19,155.98l-0.56,0.28l-0.28,1.12l0.84,1.12l0.56,0.28l0.56-0.56l0.28-1.12l-0.84-1.12H462.19z
		 M469.5,136.88v0.56l0.84,0.28l0.56,0.28l0.56-0.56v-0.84l-0.84-0.28L469.5,136.88z M471.18,127.89l-0.56,1.97l1.4-1.12l0.56-1.12
		v-0.56l-0.56-0.28L471.18,127.89z M471.46,146.43l-0.28,0.84l1.12,0.56l0.84-0.28v-0.84l-1.12-0.56L471.46,146.43z M492.81,134.91
		l-2.81,2.81l-7.58,19.1l-1.69,4.21l-7.3,18.82l-0.84,4.21l0.84,3.37l3.09,1.4l3.93,0.56h17.7l13.2,0.84l3.65-1.12l2.25-2.25
		l0.84-2.81l-1.12-3.65l-6.18-19.1l-1.4-4.21l-5.62-16.57l-1.4-3.65l-2.81-1.97l-3.65-0.84L492.81,134.91z M485.79,106.54l0.28,1.12
		h2.81l-0.56-1.12l-0.56-0.56l-1.4-0.56L485.79,106.54z M491.69,98.4v0.84l1.12,0.28l1.4,0.28l1.12-1.12h-1.12l-0.84,0.28
		l-0.84-0.56H491.69z M504.61,101.21v0.28l0.84,2.81l2.53,0.56l-0.84-1.69v-2.81l-1.4-0.28L504.61,101.21z M507.7,123.96l1.12,0.28
		l0.84-0.56l-0.84-0.28L507.7,123.96z M511.91,109.35l-0.28,0.84l0.28,0.84l0.84,0.56l0.56-0.56l0.56-0.84l-0.56-0.84l-0.84-0.84
		L511.91,109.35z M513.6,130.7l-0.56,0.56l0.56,0.56h0.56l0.28-0.56v-0.28l-0.28-0.28H513.6z M517.25,98.4h-1.4v0.56l1.12,1.12h0.28
		l0.28,0.28l2.53-0.28h1.12l1.97,0.28l0.84-0.56l0.56-0.56l-1.12-0.56l-2.25,0.28h-1.69l-1.97-0.84L517.25,98.4z M522.03,117.5
		h-2.25l-0.56-0.28l-0.28,0.56l-0.56,0.28v0.56l-0.28,0.84l0.28,0.28l0.28,0.56v1.12l0.56-0.28l0.84-0.56l2.25-2.25l0.56-0.28
		l0.28-0.56l-0.56-0.28L522.03,117.5z M527.08,131.26v0.28l1.4,1.4l1.97,0.56l1.12-0.28l0.84,0.84v0.84l0.84,0.28l0.56-0.56
		l0.28-0.56l-0.28-1.12l-0.84-0.28h-1.4l-1.4-0.28l-1.12-1.12l-1.69-0.28L527.08,131.26z M530.17,138.28l-0.28,0.56v0.56l0.28,0.56
		h0.56l0.28-0.56v-0.56l-0.28-0.56H530.17z M537.76,110.48l-0.28,0.56l0.28,1.12l0.56,0.84l0.84-0.28l0.28-0.56v-0.84l-0.28-0.28
		l-0.56-0.28l-0.28-0.28H537.76z M539.44,137.16l1.12,1.4v1.12l0.56,0.28l1.4-0.84l0.56-1.12l-0.56-1.12h-1.4l-0.56-0.56l-0.84-0.56
		L539.44,137.16z M548.71,194.75h-0.28l-0.28,1.12l0.84,1.12l0.28-1.12v-1.4L548.71,194.75z M550.4,150.36v1.4h0.84l0.28-1.4
		l-0.56-1.4L550.4,150.36z M556.3,205.14l-0.56,1.4l0.84,0.84l1.12-0.28l1.12,1.12l0.28-1.4l-0.84-0.84v-0.28l-0.28-0.84l-0.56-0.28
		L556.3,205.14z M558.82,225.36l-0.28,0.28l-0.28,0.56l0.84,0.28h0.56l0.56-0.28l-0.56-1.12L558.82,225.36z M560.23,237.16
		l-0.28,0.84l0.84,0.56v1.97l0.56,0.56l0.28,0.84h0.56l0.28-0.56l-0.28-0.84v-0.84l-0.56-1.12v-0.28h-0.28l-0.28-1.12H560.23z
		 M563.88,208.79v0.84l0.28,0.84l0.84,0.28h2.25l1.12,0.84l1.4,0.56l0.28-0.28v-0.28l-1.4-1.4l-1.69-0.28l-0.84,0.28l-0.56-0.56
		l-0.28-0.84l-0.84-0.28L563.88,208.79z M566.69,204.3l-0.28,0.56v0.28l0.28,0.56h0.56v-1.4H566.69z M571.75,239.13l-0.56,1.12v0.28
		l0.56,0.84h0.28l0.56-0.28h0.84v-0.56l0.28-0.28l-0.56-0.84h-0.56l-0.28-0.28H571.75z M572.87,248.4l-0.84,1.12l-0.28,0.56
		l-0.28,0.28l0.84,1.12l1.12-0.28h0.28v-0.28l1.12-2.25l-1.69-1.97L572.87,248.4z M573.15,227.61v0.84l0.84,0.28l0.28,0.84
		l0.28,0.56v1.12l1.12,0.28l1.12-0.28l0.28-1.12l0.56-0.56l-0.28-0.84l-1.4-0.56l-1.69-0.28l-0.56-0.28H573.15z M578.49,257.95
		l0.84,0.56l0.56,0.28l0.28,1.12l0.56,0.28l0.28-0.56l-0.28-0.84l-0.84-0.84H578.49z M582.7,233.23v0.28l0.28,0.56h1.12l-0.84-0.56
		l-0.28-0.28H582.7z M586.63,228.17h0.28v-0.28L586.63,228.17z M587.48,256.54v0.84l0.84,0.84l0.84-0.28l0.28-0.84l-0.84-0.84
		l-0.84-0.56L587.48,256.54z"/>
	<path class="st0" d="M788.6,175.36l-0.28,4.78l-0.28,6.74l-0.84,4.49l-1.97,6.46l-1.4,4.49l-1.69,4.21l-1.69,4.49l-1.69,4.77
		l-1.69,4.21l-3.09,6.18l-2.25,3.65l-3.93,4.49l-2.81,3.09l-4.78,4.49l-6.18,6.18l-3.65,3.09l-5.34,4.21l-3.65,2.25l-5.62,3.09
		l-3.65,1.69l-6.18,2.25l-4.21,1.4l-4.49,1.12l-4.49,0.84l-17.14,2.53l-4.21,0.28l-6.18,0.56h-4.49l-8.99-0.28l-7.3-0.56h-4.49
		l-8.99,0.56l-7.02,0.28l-4.78,0.28l-4.21-0.28h-19.66l-4.21-0.28l-12.08-1.12l-2.25-1.12l-1.4-1.4l-0.56-3.09l-0.28-4.49l0.28-2.25
		l0.56-8.43v-3.93l0.28-6.46v-4.21l0.28-4.49v-4.49l-0.28-14.89v-4.49l-0.56-14.89l0.28-4.21l0.28-6.18l0.56-4.21l0.28-4.78v-4.49
		l-0.56-7.3l-0.28-4.78v-2.53l-0.28-4.77l1.12-14.89v-4.49l-0.28-14.89v-4.49l-0.84-14.89V83.51l0.28-4.49l0.84-4.21l0.56-3.09
		l1.12-1.69l3.09-0.84l4.78-0.56l4.21-0.56l4.49-0.28l24.72,0.28h4.49l13.48,0.84l2.25,0.28h5.06l11.8-0.56l4.21-0.28h4.49
		l7.02,0.56l8.99,0.56l4.49,0.56l7.3,1.12l4.49,0.84l4.21,1.12l10.11,3.65l4.21,1.97l4.21,2.25l3.93,2.25l9.27,6.46l3.65,3.09
		l3.37,2.81l6.18,5.9l2.81,2.81l2.53,3.09l1.97,3.65l3.09,6.18l1.69,4.21l1.4,4.49l1.69,4.49l1.4,4.49l1.12,4.49l1.12,6.18
		l0.84,4.49l0.84,4.78l0.56,4.49l0.28,6.74l0.28,4.49L788.6,175.36z M607.7,95.87l-1.12-0.84h-1.4v-0.28h-0.28l-0.56-0.56
		l-0.84,0.28l-0.28,1.4l0.84,1.4h1.12l0.56-0.84l1.12-0.28L607.7,95.87z M611.35,87.16l-0.28-0.28l-0.28-0.56h-0.56l-0.28,0.28v0.56
		l0.56,0.28h0.56L611.35,87.16z M618.65,89.69l-0.28-0.56v-0.28l-1.97,0.28l-1.69,1.4l-0.56,0.84h-0.84l-0.84-0.28l-0.56,0.28v0.84
		l0.28,0.56l0.84,0.28l1.12-0.28l0.84-1.12l0.84-0.84l1.4-0.28L618.65,89.69z M621.46,113.85l-0.56-1.12l-0.56-0.56l0.28-0.28
		l-0.56,0.28h-0.28l-0.56,0.56h0.56v0.84l-0.28,1.12l0.84,0.84l0.56-0.56L621.46,113.85z M621.46,107.1h-0.28l-0.56,0.84v0.56
		l0.84-0.84V107.1z M625.11,151.49l-0.84-1.4l-1.12-0.56l-0.28,0.28v0.28l0.84,1.12L625.11,151.49z M627.36,124.24l1.97-1.69
		l-0.56-2.53l-0.84,1.4l-1.69,0.84h-0.56l-0.28,0.28v1.4l1.4,0.28H627.36z M630.17,136.6l-0.28-1.12l-0.28-1.4l-1.4-0.56l1.12,1.69
		l-0.28,0.84l0.28,0.84L630.17,136.6z M632.7,113.28l-0.56-0.28h-0.84l-0.56,0.84l-0.28,0.84l0.84,0.28h0.84l0.56-0.84V113.28z
		 M636.35,105.7l1.4-0.28v-0.56l0.28-0.28v-0.56l0.28-0.28l0.28-0.56l-0.56-1.12l-1.69-1.12l-0.84-0.28h-0.84l-0.28-0.28h-0.28
		l-0.56,0.28v0.84l0.56,0.28l0.28,0.28l0.28,0.84l0.56,0.84v1.4l0.56,0.28h0.28L636.35,105.7z M639.44,138l-0.28-1.12l-0.56-1.12
		l-0.84,0.84v0.56l-0.28,0.28v1.4l1.12,0.28L639.44,138z M645.9,113l-1.12-1.69v1.12L645.9,113z M650.39,104.86l-0.28-0.56h-0.56
		l-0.56,0.56l0.56,0.56l0.56,0.28l0.28-0.28V104.86z M731.01,160.76l-0.28-4.49l-0.84-6.46l-1.12-4.21l-0.56-1.69l-2.25-4.21
		l-4.21-5.9l-1.4-1.4l-2.81-3.09l-3.09-3.09l-3.37-2.53l-6.18-3.65l-3.93-1.69l-3.93-0.84l-4.49-0.84l-7.02-0.28l-4.77-0.28h-7.02
		l-6.18-0.28l-4.21,0.28l-6.18,0.84l-3.09,0.84l-1.4,1.4l-0.84,3.37l-0.28,2.53l-0.28,4.21l0.56,8.43l0.28,4.49l0.56,6.18l0.56,4.49
		l0.28,4.49v4.49l-0.28,6.18v13.48l-0.28,4.78l-0.28,4.49l-0.56,6.18v3.93l-0.28,6.46l0.28,4.21l0.84,6.74l1.12,3.09l1.69,1.4
		l3.37,0.28l26.12-1.69l6.46-0.28l4.49-0.84l4.78-1.4l4.49-1.69l4.21-1.97l3.65-2.53l5.06-4.49l2.81-3.37l3.37-5.34l1.97-4.21
		l1.69-4.78l1.12-4.21l1.12-6.18l0.28-3.93l0.28-6.46V160.76z M663.31,252.61l-0.28-0.28h-1.12l-0.28,0.28l0.56,0.56h0.84
		L663.31,252.61z M663.59,96.71l1.69,0.28l2.25-0.84l-1.97-0.56l-1.69,0.28l-0.28,0.28V96.71z M665.84,259.63l-0.56-0.56l-0.56,0.28
		v0.56l0.56,0.28h0.56V259.63z M666.97,252.05l-0.56-0.28h-0.28l-0.56,0.56l0.28,0.56h0.56l0.28-0.28L666.97,252.05z M671.18,101.49
		l0.28,0.28v0.56l0.84,0.84h1.12l0.28-0.84l-0.28-0.84l-1.12-0.28h-0.84L671.18,101.49z M672.58,240.53l1.12-0.56l0.28-1.12
		l-0.28-0.84l-1.4,0.56l-0.84,1.4L672.58,240.53z M674.55,247.55h1.12l0.28-0.28l-0.28-0.56l-0.84-0.56l-1.12,0.56L674.55,247.55z
		 M673.99,92.5l0.84,0.56l0.84,0.28l0.56-0.56v-0.84l-0.28-0.56h-0.56l-0.84-0.28v0.28h-0.28l-0.28,0.28V92.5z M676.8,249.8
		l-1.12,0.56l-0.28,0.84v0.28h0.28l0.84-0.56L676.8,249.8z M680.73,244.18l0.84-0.56v-0.28l-0.28-0.28h-0.84l-0.84,0.56
		L680.73,244.18z M682.7,252.89l-1.12,0.84l-0.56,2.25l0.28,1.12l0.84,0.28l0.56-0.84l-0.28-0.84l0.28-1.69V252.89z M681.29,102.61
		l0.56,0.28h0.56l0.56-0.28l0.56-0.84l-0.28-0.28h-0.84l-0.84,0.28L681.29,102.61z M681.85,93.9l1.69,0.84h2.25l0.84,1.4l1.69,0.56
		l-1.12-3.65h-5.06L681.85,93.9z M690,250.64l-0.84-1.12v-0.84l-1.97,0.84l-1.69,1.12l-1.12-0.84l-1.4,0.28v0.28l-0.28,0.28
		l1.12,0.84l1.4-0.28h0.28l1.97,1.4l2.25-0.84L690,250.64z M683.82,86.04l0.28,0.56l0.56,0.28h0.84v-1.4l-0.56-0.56l-0.84,0.56
		L683.82,86.04z M689.16,248.4l0.28-1.69l-1.12-1.69l-0.56,1.97L689.16,248.4z M695.34,252.33l-0.56-0.84l-1.97-0.56l-1.4,1.12
		l1.12,0.56l0.84,0.84l1.12,0.28l0.84-0.56V252.33z M691.69,98.96h3.09l1.4-1.69l-0.56-1.97l-0.84-1.69l0.56-1.69l0.56-1.4v-1.69
		l-1.4-1.12l-1.4,0.28v7.02l0.56,0.84l0.56,0.56l-1.69,1.12L691.69,98.96z M691.69,105.14l0.84,0.84l1.4,0.28l1.4-0.28l0.84-0.84
		l-0.84-1.12l-1.69-0.28l-1.4,0.28L691.69,105.14z M695.9,239.69l-0.28-0.56l-0.84-0.28l-0.84,0.56l-0.84,0.28v0.56l0.84,0.56
		l1.4-0.56L695.9,239.69z M699.27,89.69l0.56,0.56l0.56,0.28l1.4-0.56l0.28-0.84v-0.84L701.52,88l-1.4,0.56L699.27,89.69z
		 M700.39,246.43l0.56-0.84l0.56-0.56l-0.84-0.56l-0.84-0.28v1.12L700.39,246.43z M704.04,252.33l-0.56-0.28l-0.84-0.56h-1.4
		l-0.28,0.56v0.28l0.28,0.56l0.28,0.28l-0.28,0.56l0.56,0.56l1.97-0.56v-0.84L704.04,252.33z M702.36,83.79l0.28,0.84l0.28,0.28
		v0.28h3.09l0.56,0.84v1.4l0.56,0.84l0.84,2.53l1.69-0.84l1.12-1.12l3.09-1.12l1.12,0.84l0.84-0.56l-0.28-1.12h-1.4l-1.4-1.12
		l-1.4-0.28l-0.28-1.69h-0.28l-1.12-0.56l-1.4-0.56l-1.4-0.28l-2.25,0.28l-1.12,0.84h-0.56l-0.28,0.28H702.36z M707.7,241.09
		l-1.4,0.28h-1.12l-1.4,1.4l0.56,0.56l0.56,0.84l1.97-1.12L707.7,241.09z M711.63,103.45l-1.69,0.28l-1.12,0.84v0.84l1.4,0.56h1.4
		l0.56-1.12v-0.84L711.63,103.45z M713.88,253.73l-0.28-0.84l-0.84-0.28l-0.56,0.28l-0.28,0.28h-0.28l-0.28,0.28l-0.84,1.12
		l-0.56,1.12l2.81-0.84L713.88,253.73z M710.5,232.95h0.56l0.56-0.28l-0.28-0.56l-0.28-0.28l-0.56-0.28l-0.28,0.56v0.56
		L710.5,232.95z M714.72,249.24l-0.84-1.4h-0.84l-0.84,0.84l-0.56,0.84l-1.12,0.56l1.69,1.12l1.12,0.28l0.84-0.56L714.72,249.24z
		 M712.47,229.58l0.56-0.28v-0.56l-0.56-0.56l-0.28,0.28v0.56L712.47,229.58z M712.75,107.1l0.84,0.56l0.56,0.84h0.56l0.56-0.28
		l-0.28-0.84l-0.84-0.28H712.75z M713.59,92.5h1.4l0.84-0.84l-0.28-1.12l-1.4-0.56l-0.84,0.28v0.84l-0.28,0.84L713.59,92.5z
		 M715.84,102.33l-1.69,1.12l0.56,1.4l1.4,0.56l1.12-0.84l1.4,0.28l0.56,0.84v4.21l-0.56,1.4l0.28,0.28v0.56l-0.28,0.84v0.84
		l-0.28,1.69l4.21,1.12l2.25,0.28h0.56v-0.28l0.28-0.28v-0.56l-0.56-0.56l-0.28-0.56l-2.25-0.84l-1.4-1.69l-1.69-1.69v-0.56
		l1.12-3.93l1.12-0.84h0.56l1.12-0.56l1.69-2.53l4.21-0.28l-0.84-1.97l-1.97-1.97l-1.4,0.56l-0.56,0.28h-0.28l-0.56,0.28h-0.56
		l-1.12,0.84l0.56,0.28l0.84,1.12l-1.12,1.69l-0.56-0.28l-1.69-0.28l-2.25-1.12L715.84,102.33z M721.46,234.35l-0.84-0.56
		l-0.84,0.28l-0.56,0.56l0.28,0.84l0.56,0.28h0.56l0.84-0.56V234.35z M719.49,92.22l1.12,1.4l0.56,0.56h0.84l0.56-1.4l-0.56-1.4
		v-0.56l-0.28-0.56l1.12-1.12L722.02,88l-1.69,0.28v1.4l-0.28,0.28l-0.28,0.56L719.49,92.22z M723.15,95.03h-0.84l-0.28,0.28
		l-1.69,1.97l0.28,0.56l0.56,0.28l0.56-0.28h1.69l0.28-0.56l1.69-1.12h2.25l2.25,0.28l1.4-0.56l0.28-1.12l-0.28-1.12l-1.12-0.56
		l-1.4,0.28v1.12l-1.12,0.84l-0.84-0.28h-0.56l-0.28-0.28h-1.4L723.15,95.03z M725.95,235.19l-0.84-0.28l-0.84,0.56h-0.56
		l-1.12,0.56l-0.28,1.12v0.28l0.28,0.28l0.84-0.28l0.56-0.84l0.56-0.56h1.12L725.95,235.19z M723.99,88l2.25,0.84l1.12,1.12
		l0.56,0.84l0.28,0.28l2.25,0.56l1.69-0.56v-1.4l0.28-1.12l0.56-0.84l1.12-0.56v-1.12l-1.12-0.28l-1.12,0.28h-3.37l-1.12-0.28
		l-2.53,1.12l-0.84,0.84V88z M728.2,109.91v-0.28l-0.56-0.56l-1.97-1.69l-1.69,1.12v3.37l1.97,1.12l0.28,0.28h0.28l0.56,0.56
		l0.84-0.28l0.56-0.28v-0.56l0.28-1.4v-0.28L728.2,109.91z M730.17,111.6l-0.28,0.56v0.28l0.56,0.28l0.84,0.28l0.28,0.28l1.97,1.4
		l1.12,0.56l0.84-0.56V113l-0.56-0.84h-1.12l-1.12-0.28l-0.84-0.28H730.17z M732.13,100.64v-0.56l-1.69-1.12l-0.28,1.4l1.12,1.4
		h0.56l0.56-0.28L732.13,100.64z M733.26,106.54v-0.56l-1.4-1.4l-0.28,1.69l-0.56,1.4l0.56,0.56l1.4,2.25l0.56,0.56l2.25,0.56
		l0.56-1.69l-0.56-0.84l-0.84-0.56L733.26,106.54z M743.37,220.87l-0.28-0.56v-0.28l-0.28-0.28v-0.28h-0.28l-0.56,0.28l-0.84,0.28
		l-0.56,0.28H740v0.84l0.28,0.56l-1.12,0.84l-0.84-0.84l-0.28-0.56l-0.56-0.56h-0.56l-0.56-0.28h-1.12l-0.56,0.84l0.28,0.56h0.84
		l0.56,0.56l-0.28,0.56l-1.12,0.84l-0.84,0.84v0.28l-1.12,0.56v1.12l-0.84,0.56l-0.84,0.84l1.4,1.69l1.69,1.4l0.28-1.69l-0.56-1.12
		v-2.53l0.28-0.56l2.25-1.12h2.53l0.56-0.28l1.12-1.12h1.12l1.12-0.28l0.28-0.56V220.87z M734.1,88.28l2.25,1.12l-0.56,1.12
		l-0.56,1.4l0.28,0.56v0.28l0.28,0.28l0.28,0.84l0.28,0.56l1.69-0.56l1.97-0.28h3.93l-1.12-1.69l-0.28-0.56l-2.81-1.12l-1.97-1.12
		l-0.56-0.56h-0.28l-0.28-0.28H734.1z M734.94,121.15l0.28,1.12l0.84,0.56l1.12,0.84v-1.97l-0.84-1.12l-0.84,0.28L734.94,121.15z
		 M738.31,98.4h0.84l0.28,0.28l0.28-1.12l-0.56-0.28l-0.56-0.56l-1.69-0.56h-0.84l-0.56,0.28l0.56,0.84L738.31,98.4z M740,109.63
		l1.69,1.4l0.84,0.56l-0.28-1.4l-0.28-0.84v-0.28l-2.81-0.56l-0.28-1.69v-1.69l-1.4,2.53L740,109.63z M740.56,118.06v-0.84
		l-0.28-0.28l-0.56-0.28h-0.84l-0.28,0.56l-0.56,0.28l0.28,0.56v0.56l0.56,1.12l1.4,0.84l0.56-1.4L740.56,118.06z M741.4,206.82
		v0.28l0.84-0.84l-0.84-0.56l-1.69-0.28l-1.4,1.4l2.81-0.56L741.4,206.82z M743.37,117.78l3.93,1.97l1.97-0.56l0.56-2.53l-1.12-1.69
		l-1.69-0.28h-0.56l-1.12-0.28h-1.69l-1.69-0.56l-2.25,0.84l0.56,0.28L743.37,117.78z M741.97,95.59l1.69,3.37l0.56,0.28l0.28,0.28
		h0.28l0.56,0.84l1.12-0.28v-0.56l-0.56-0.56l-0.84-0.56L741.97,95.59z M747.02,104.86l-0.56-1.12l-3.65-1.12l1.97,2.81l0.56,0.28
		l0.28,0.56h0.28l0.56,0.56l1.69,1.4l0.56,0.84l0.56,2.25l0.84,1.69l0.84,1.12v-1.97l-0.28-0.56l-0.28-2.25l-0.56-0.84l-0.84-0.56
		l-1.4-2.25l-0.28-0.56L747.02,104.86z M752.08,225.92h-2.25l-0.28-0.84l-0.28-0.56l-0.28-0.28l-0.28-0.56l-0.56-0.28v0.28h-0.28
		l-0.28,0.56l-0.28,0.28l0.56,2.25l-1.12,1.12l-1.12,0.84l-0.56,0.84l-0.28,0.28v0.84l-0.56,1.12l-0.28,1.12l0.84,1.4l0.56-0.56
		l0.28-0.56v-1.12l0.84-0.56l0.28-1.4l1.12-1.12l2.25-1.12L752.08,225.92z M746.74,121.71h-0.56l-0.28,0.28l-0.28,0.56l1.12,0.56
		l0.28-0.28l0.28-0.56L746.74,121.71z M757.7,206.82l-0.28-0.56l-0.56-0.28l-1.69-1.12l-0.28,0.84l0.28,1.12l-0.28,0.56l-0.84,0.84
		l-0.84,1.12h-0.56l-0.28,0.56l-0.28,0.28l-0.84,0.28l-0.56,0.28h-0.28l-1.4,0.28h-0.84l-0.56,0.56l0.28,0.56l0.56,0.28l2.25,0.28
		h3.37V213h0.28l0.56,0.28l1.69-1.12v-0.84l-0.56-1.69l-0.28,1.12h-0.28l-0.56,1.12l0.28-0.84v-1.97l0.56-0.56l0.28-0.84l0.84-0.56
		l0.56,0.28L757.7,206.82z M751.24,121.71l0.28,0.28l0.56,0.28h1.12v-0.56l-0.28-0.28v-0.28l-0.84-0.84l-0.56,0.28l-0.28,0.56
		V121.71z M751.52,106.26l0.56,0.56l1.12,1.97l1.12,0.28h0.84v-1.4l-0.28-1.4l-0.56-1.12l-0.56-0.28l-0.84,0.56L751.52,106.26z
		 M752.36,196.43l-0.28,0.56l0.28,0.56l1.12,1.4l2.25-0.56l-1.69-1.12L752.36,196.43z M753.48,133.23h0.84v-1.97l0.56-3.37
		l-1.97,2.53v2.25L753.48,133.23z M755.45,113l-1.4,1.97l1.12,1.12l1.69-0.56l0.56-2.25L755.45,113z M755.73,138l-0.28-1.12
		l-0.84-0.28l-0.28,0.56l-0.28,0.28l1.12,1.69L755.73,138z M754.89,211.88v0.28V211.88z M758.82,180.98l-0.84-0.28l-0.56,0.56v0.28
		l0.28,0.28l0.84-0.28L758.82,180.98z M762.19,181.54h-0.84l-1.12,1.69l-1.12,0.56l1.69,0.84l0.84-1.4l0.56-0.84V181.54z
		 M763.03,173.96h-0.56l-0.56,0.56l-0.84,1.12l0.84,1.12v-0.84l0.28-0.84l0.56-0.28L763.03,173.96z M765.56,203.73l-0.28-0.28
		l-1.12,0.28l-0.28,0.84l0.84,0.28l0.56-0.84L765.56,203.73z M766.69,157.95h0.28l0.28-0.28v-0.56l-0.28-0.28h-0.56l-0.28,0.56v0.28
		L766.69,157.95z M766.97,188l0.84,0.28l0.84-0.28v-0.56h-0.84L766.97,188z M770.34,165.81l-0.56-0.84h-2.25v0.84l0.56,0.56h1.97
		L770.34,165.81z M770.34,198.12l-1.12-0.84l-1.4-0.28l-0.28,0.28v0.56l1.12,0.84L770.34,198.12z M769.49,159.07l0.56,0.28h0.84
		l-0.56-1.12h-0.56l-0.28,0.28V159.07z M770.62,151.49l0.28,0.56h0.56v-0.84l-0.28-0.28h-0.28l-0.28,0.28V151.49z M777.92,163h-0.84
		l-1.12-0.28l-0.56,0.84l-2.25-0.28l-0.56,2.25v2.25l-0.28,0.28v0.28l-0.56,1.4v2.25l-0.28,0.28l-0.84,2.53v1.4l0.28,0.84l0.56-0.84
		l0.56-1.12l0.56-2.25v-2.81l0.28-1.4v-1.12l1.12-0.84h1.12l0.28,1.12l1.12,0.28l0.84-0.28l-0.28-1.12l0.28-1.4l0.56-1.4V163z"/>
	<path class="st0" d="M985.5,167.78l-0.28,4.49l-0.56,6.46l-0.56,4.21l-1.69,8.43l-0.56,6.46l-0.56,4.21l-0.84,4.49l-1.12,4.21
		l-2.81,5.9l-1.97,3.93l-7.58,12.64l-2.53,3.65l-2.81,3.65l-2.81,3.09l-4.49,4.78l-3.09,2.81l-3.65,2.81l-3.37,2.53l-5.06,3.37
		l-3.65,2.25l-4.21,2.25l-3.93,1.69l-5.62,2.25l-4.21,1.12l-8.99,2.81l-4.78,1.4l-4.49,1.12l-4.78,1.12l-4.78,0.84l-4.78,0.28
		h-15.17l-9.55-0.56l-9.27-1.12l-3.93-0.84l-4.21-1.12l-15.17-5.06l-4.49-1.4l-4.77-1.97l-8.99-3.93l-4.21-2.25l-4.21-2.53
		l-3.65-2.81l-3.65-3.09l-3.37-3.65l-3.09-3.65l-7.58-7.58l-2.81-3.37l-2.81-3.65l-2.25-3.65l-2.25-5.62l-4.21-12.64l-1.69-5.9
		l-0.84-4.21l-0.84-4.49l-0.84-4.21l-0.84-6.18l-0.28-4.21l-0.28-4.78v-4.78l0.28-4.78l0.28-5.06l0.56-4.77l0.84-4.78l1.12-4.78
		l1.4-4.78l1.4-4.21l1.69-4.49l1.97-6.46l1.97-4.49l1.12-2.53l2.25-4.21l3.93-6.18l2.81-3.93l1.4-2.25l3.37-3.37l4.78-3.93
		l3.65-2.81l3.65-2.53l8.43-5.62l3.65-2.25l3.93-2.25l3.93-1.97l5.9-2.53l3.93-1.4l4.21-1.4l4.21-1.12l10.67-1.97l4.21-0.84
		l14.04-1.69l8.99-0.56l8.43,0.56l6.74,0.28l4.78,0.56l4.77,0.84l4.78,1.12l4.78,0.84l4.49,1.12l4.21,1.12l4.21,1.4l5.9,2.25
		l3.93,1.69l9.27,5.34l3.65,2.53l3.65,2.81l4.78,4.49l3.09,2.81l3.09,3.09l2.53,3.37l3.93,5.34l2.25,3.65l1.97,3.65l2.25,3.65
		l3.09,5.62l2.25,3.65l1.97,4.21l1.4,3.93l1.4,6.46l1.69,8.43l0.56,4.78l0.84,4.78L985.5,167.78z M780.72,199.8l-1.12-1.12
		l0.28,1.12v0.84l-0.56,0.84v0.84h0.56L780.72,199.8z M781.01,178.17h0.84l0.56-1.12v-1.97l0.28-1.12l-0.56-0.56l-0.56,0.56
		l0.28,1.12l-0.28,0.56v0.28l-0.56,1.12V178.17z M784.66,188.85l0.56-2.53l-1.12,0.84h-2.25l-0.28,1.4l0.56,0.84h0.28l0.28,0.28
		L784.66,188.85z M786.06,206.82l-0.28-1.12l-1.12,1.12l-0.56,1.12l0.84,0.84l0.84-0.56L786.06,206.82z M786.06,162.44l0.56-0.28
		v-1.4h-0.84l-0.56,0.56l0.28,0.56L786.06,162.44z M788.03,230.98l-0.56-1.12l-0.56-0.84l-0.56-0.28v0.84l0.28,0.56l0.56,0.84
		l0.56,0.28h0.28V230.98z M789.43,182.95l0.84-0.28l0.28-0.84l-0.28-0.56l-0.56-0.56l-0.84,0.56l-0.56,0.84l0.56,0.56L789.43,182.95
		z M789.15,126.21l0.84-1.12l0.28-1.12l-0.28-0.28h-0.28l-0.56,1.12V126.21z M791.12,209.63l-0.28-0.56h-0.28l-0.56,0.28l-0.28,0.84
		l0.28,0.56h0.56l0.56-0.28V209.63z M792.8,140.25v-0.28l0.28-0.84l-0.28-0.56h-1.12l-0.84,1.12l0.28,1.12l0.84,0.56l0.56,1.69
		l0.56-1.4L792.8,140.25z M796.74,176.21l0.84-0.84l0.56-0.28v-1.12l-0.56-1.4l-1.12-1.12l-0.28-0.84h-0.56l-0.28,0.84l0.28,0.84
		v1.69l-0.28,1.12l0.56,0.84L796.74,176.21z M795.61,148.12l1.4,1.4l0.84,0.56l0.56,1.4l0.84,1.12l0.56-0.56l-0.56-1.97l-1.4-1.12
		l-0.56-0.28l-0.28-0.84v-0.84l-0.28-0.84l-0.56,0.28l-0.28,0.56L795.61,148.12z M798.98,237.16l-0.28-1.12l-0.84-0.84h-0.84
		l0.56,1.12L798.98,237.16z M798.98,217.78l-0.56-0.84h-0.84l-0.28,0.56l0.28,1.12l0.56,0.84l0.84,0.28l0.56-0.84L798.98,217.78z
		 M817.8,236.88l1.97-1.97l-1.12-2.53l-1.12-1.12v-0.28h-1.97l-0.84-0.28l-0.84-0.56l-0.28-0.28l-0.28-0.56l2.81-0.56h1.12v-1.12
		l0.84-0.84l0.28-1.12l1.69-1.4l2.53-0.28l0.28,0.28h0.28l0.28-0.28l0.28,0.28h0.28v1.12l0.28,0.56h-1.12l-0.84,0.84v0.28l0.28,0.28
		l0.28,0.56h1.4l0.84-0.56h0.84l0.56,1.12l0.28,1.12l0.28,0.28v0.28l0.56-0.28l1.12-0.28l0.56-0.56h1.12l0.28-0.84l-0.84-0.56
		l-0.56-0.28l-0.56-0.56l-0.28-0.56l-2.53-2.81l-0.56-0.28h-0.84l-0.28,0.28v-0.56l-0.28-0.28l-0.84-1.12l-0.56,0.28l-0.28,0.28
		l-0.84-0.28l-1.12,0.28v-0.28l0.56-0.84l-0.56-1.12l-0.84-1.97l-0.56-1.97l-1.4,0.56l0.56,1.97l0.56,1.4l-0.28,1.12v1.12l0.56,1.12
		l-2.25,2.25l-0.56,0.28l-1.97-0.56l-0.84,1.4l-0.56-0.56l-2.25,1.4l-0.56,1.97l0.56,1.4l1.4,0.56v0.56l-0.84,1.69l-0.56,1.69h-1.97
		l-1.4-1.97l0.84-0.84h0.84l0.56-0.56l-0.84-0.56l-0.84-0.28l-1.4-0.56l-1.12-0.28h-0.84l-1.69-0.56l-0.56-0.28l-0.28,0.28h-0.28
		l-0.56-1.12h0.84l0.28-1.12h0.28v-0.28l0.56-0.84l0.28-1.4h1.4l2.53,0.56l2.25-1.12l-1.4-1.69l-0.56-1.69v-0.28h-0.28l-0.28-0.28
		l-0.56-0.28h-1.4l-0.28,0.28l-0.28,0.56v0.84l0.28,0.56h0.84l0.56,1.12l-0.84,0.56l-1.12-0.56h-0.84l-1.69,0.84l-0.28,0.84v0.84
		h-1.12l-0.84,0.28l-0.56,1.69l0.28,0.56v0.28l0.56,0.84l-1.12-0.28h-0.84v0.56h0.28l1.12,0.56l0.84-0.28l0.84,0.56l0.56,0.84h0.28
		v0.56l0.84,1.4l1.69,1.4v0.28l0.28,0.28l-0.56,1.69l0.56,1.97l0.56,0.56l0.28,0.56l0.28,0.28l-0.56,0.56v0.84l1.97,1.4h0.28
		l0.56-0.28l0.84-0.28l0.28,0.28l0.56,0.28l0.84,0.56l0.56,0.56l0.28,0.84l0.56,0.84l0.28-0.84l0.28-0.56l-0.28-1.4l-0.56-0.84
		l-0.84-0.84h1.4l1.12-0.28l1.69-1.4l-1.12-0.56h-0.28l-0.56-0.28l-0.28-0.28l-1.4-0.28h-1.12l-1.69-0.56v-0.28h-0.28l-1.12-1.12
		l2.53-0.28l0.28,0.28h1.12l1.4,0.28l0.28,0.28l1.69,0.56l0.28,0.28l0.56,0.28l0.84,0.28l1.69-0.28l0.28-1.12V236.88z
		 M799.54,187.44v-1.12l-0.28-0.84l-0.28,0.84L799.54,187.44z M799.54,144.46l0.28,0.28l0.28-0.28l0.28-0.56v-0.56l-0.56-0.28
		l-0.28,0.28V144.46z M800.67,202.33l-0.28,0.56v0.56l0.56,0.28l0.56-0.56v-0.56l-0.56-0.28H800.67z M801.51,214.97l0.84,2.25
		l1.4,0.28h0.28l0.28-0.56l0.56-0.28l0.84-0.84l1.12-0.28h1.12l1.12-0.56v-0.56l0.28-0.56l-0.56-0.84l-0.84,0.28l-1.69,0.84
		l-1.97,0.84l-0.56,1.12l-1.12-0.84L801.51,214.97z M802.35,210.19l-0.56,1.12l0.28,1.12l1.69-1.69l-0.84-2.53l-0.56-0.84h-0.56v1.4
		L802.35,210.19z M804.88,181.82l0.28,0.56l0.56-0.56v-0.84l-0.56-0.28l-0.28,0.28V181.82z M808.25,228.45l-1.12-0.56h-0.84
		l-0.28,0.56l0.56,0.84l0.84,0.56l0.84-0.28l0.28-0.56L808.25,228.45z M806.85,207.39l0.28,0.28h0.56l0.28-0.28l0.28-0.56
		l-0.56-0.28h-0.56l-0.28,0.28V207.39z M809.66,216.37h-0.28l-0.56,0.28v0.28l-0.28,0.28l0.84,0.28h0.28l0.28-0.28l0.56-0.28
		l-0.28-0.28L809.66,216.37z M811.06,220.03l2.25-0.28l2.25,0.56l0.28,0.84h0.84v-0.56l-0.56-0.56l-0.56-1.12l-0.56-0.84l0.28-1.12
		l-0.56-1.12l-1.12-0.84h-0.56l-0.84,0.84l0.28,0.28l0.28,0.56l-0.28,0.84l-0.56,0.56l-0.28,0.84L811.06,220.03z M817.52,241.66
		l-0.84-0.84h-0.56l0.56,1.12l0.28,0.28h0.56V241.66z M926.51,167.78l-0.28-4.78l-0.28-4.49l-1.69-8.43l-1.12-3.93l-3.09-6.18
		l-2.25-3.65l-3.93-5.06l-2.81-3.09l-4.21-4.49l-3.09-2.53l-7.3-4.21l-3.93-1.69l-4.49-1.4l-4.49-0.84l-8.99-0.56l-4.21,0.28
		l-6.18,0.28l-4.21,0.84l-7.3,1.97l-4.49,1.69l-6.46,3.37l-3.93,2.53l-4.49,3.93l-3.09,3.37l-3.09,4.21l-2.25,3.65l-0.84,1.69
		l-2.53,5.9l-1.4,4.21l-0.84,1.97l-0.84,3.93l-0.56,3.93l-0.28,3.93l-0.28,4.21v4.21l0.28,4.49l0.84,4.49l0.28,2.53l1.12,4.21
		l0.56,1.97l1.4,3.93l1.12,2.25l2.25,3.93l1.4,2.25l3.09,3.93l1.69,1.97l3.37,3.37l5.62,4.78l3.93,2.53l4.49,2.25l4.21,1.69
		l5.9,1.97l4.21,0.84l7.02,0.84l4.78,0.28l7.02-0.56l4.49-0.56l6.18-1.4l3.93-1.69l6.18-3.93l3.37-2.53l4.49-4.49l2.81-3.09
		l3.65-4.49l2.53-3.93l2.81-6.18l1.69-4.21l1.4-6.46l0.56-4.21l0.56-6.74V167.78z M829.04,248.68l-0.28-0.56v-0.84l-0.84-1.12
		l-0.56-0.84h-0.84l-1.12,0.28h-1.12l0.56,1.4l-1.12,0.84l-1.69-1.12l-0.84-1.4h-1.69l-1.12,0.28l-0.28,1.12l0.84,0.84l0.84-0.28
		l0.84,0.56v0.84l-0.56,1.12l-0.28,1.4l-0.56,0.84l0.56,1.12l-0.56,2.25l3.93,2.81h0.28l2.53,0.56l1.69,0.28h0.56l-0.28-0.28
		l-0.84-0.56l-1.4-1.12l-1.4-0.56l-0.84-0.56l-1.69-1.97l-0.56-0.56v-0.28l-0.56-0.84v-0.28l-0.28-0.56l0.84-1.12l0.84-0.84
		l1.12-0.28h1.12l0.84-0.56l0.84-0.84l2.53,1.12L829.04,248.68z M819.77,241.94v0.28l0.28,0.28l1.69,0.28l1.12-0.56l1.4,0.28
		l1.4,0.56h1.12l0.56-0.84l-0.28-0.56l-0.56-0.84h-0.84l-0.28,0.84l-0.84,0.28l-1.12-0.56l-1.97-0.28L819.77,241.94z M820.33,231.82
		l1.12,0.56l0.56-0.56l0.28-0.56l-0.84-0.84h-0.56l-0.84,0.84L820.33,231.82z M829.6,239.97l-0.28,0.84l0.56,1.12h0.28l0.28-0.28
		v-0.28l0.28-0.56L829.6,239.97z M834.1,250.36l0.28-0.28v-0.56l-0.28-0.56l-0.56-0.56l-0.84,0.28l-0.56,0.28h-1.12l-0.84,0.28
		h-0.84v0.28l0.28,0.28h1.12l0.84,0.28l1.69,0.28H834.1z M832.97,263.57v-0.84l0.84-0.56l-0.56-0.84h-1.12v1.12h-0.28l-0.28,0.28
		l-0.28,1.12l0.56,1.12l0.56,0.28h0.28l0.56-0.56L832.97,263.57z M834.1,238.85l-0.56-0.56l-0.28,0.28h-0.28v0.56l0.56,0.56
		l0.56-0.28V238.85z M834.38,244.18l-0.28-0.56v-0.28l-0.28-0.28v1.97l4.21,0.84l-1.12-1.12l-1.97,0.28L834.38,244.18z
		 M834.38,239.97l0.56,0.28h0.28l0.28,0.28h0.28l2.25,1.12l-1.97-1.4l-0.28-0.28H834.38z M839.71,258.23l-0.28-0.84l-0.84-0.28
		l-0.84-0.56l-1.97-0.56l-1.4-1.4v2.25l2.53,1.69h0.28l0.28,0.28h0.28l1.69,0.28l0.28-0.28V258.23z M836.62,231.54l-1.12,1.69v1.12
		l0.56-0.28l0.56-0.28l0.56-0.56l0.28-0.56v-0.28l0.28-0.28h-0.28v-0.56l-0.56-0.56l-1.69-0.56l0.56,0.56L836.62,231.54z
		 M838.03,233.79h-0.28l-0.28,0.84v0.28h0.28l0.28,0.28l0.84,1.12l1.4,0.28l1.12-0.28v-0.84l0.56-1.69l0.84-0.28l-0.28-0.84h-1.4
		l-1.97,0.28l-0.56,0.56L838.03,233.79z M843.93,247.27l0.28-0.84l-0.28-0.56l-0.56-0.56l-0.84-0.28h-0.28l-0.84,0.84l-1.69,1.4
		l-2.25,1.4l1.69,0.28h1.97l1.12-0.28l1.4-0.84L843.93,247.27z M838.87,229.86v0.28l0.28-0.28v-0.28l0.28-0.28h-0.28l-0.84-0.56
		l0.28,0.84L838.87,229.86z M841.4,254.86l-0.56-0.56l-0.56-0.28l-1.12-0.28l-0.28,0.28h-0.28v0.56l0.84,0.56h1.12L841.4,254.86z
		 M842.52,238.28h-0.56l-0.56,0.56l-0.28,0.84l1.4,0.56l0.84-0.84L842.52,238.28z M844.49,241.66l-0.28,0.56h0.56l0.28-0.28
		l0.28-1.12l-0.28-0.56v-0.56l-0.28,0.28l-0.56,0.84L844.49,241.66z M845.05,249.8l0.28-0.28v-0.28l-0.28-0.56l-0.56,0.28
		l-0.28,0.28v0.28l0.28,0.28H845.05z M850.67,264.69l-0.56-1.4l-0.84-0.84l-1.12-0.56l-1.4-0.84l-1.4,0.84l0.84,2.25l2.81,0.84
		L850.67,264.69z M846.46,246.43l0.56-0.28l0.28-0.56h-0.28l-0.28-0.28h-0.84v0.56L846.46,246.43z M851.79,251.49l-1.69,1.97
		l-1.97,0.84l2.81-0.28L851.79,251.49z M851.51,247.83l1.69,0.56h0.56v-0.56l-1.4-0.56l-1.97-1.12L851.51,247.83z M856.01,252.33
		l-0.56-0.56l-0.56-0.28h-1.97l1.97,0.84H856.01z M862.75,242.78l-1.4-0.84l-1.12-0.56h-0.28l-0.56,0.28l-2.25-1.12h-0.28
		l-0.56,0.56l-1.12,0.28l0.84,0.28l0.28,0.28h0.56l2.53,0.28l1.4,0.56H862.75z M857.41,248.4l-0.56-0.56h-0.84v0.28l-0.28,0.28
		l0.28,0.28h0.84L857.41,248.4z M856.85,236.04v-0.84l-0.84,0.56v0.84L856.85,236.04z M861.9,249.8l-0.56-1.12l-0.56-0.56l-1.4-0.28
		l-0.56,0.84l0.56,1.12l1.4,0.28L861.9,249.8z M868.37,240.81l-1.12,0.28l-0.84,0.28l-0.84-0.84h-0.84v0.84l1.12,0.56l1.4,0.28
		L868.37,240.81z M868.37,250.92l-0.56-0.84l-1.4-0.56l-0.56,0.28l-0.84,0.28l0.56,0.84l0.84,0.28h0.84L868.37,250.92z
		 M881.01,246.99l-0.84-1.4l-0.28-1.69v-1.12l-1.12-0.56l-1.12,1.12v0.56l0.56,2.53L881.01,246.99z M882.69,265.81l-1.12-0.28
		l-0.84,0.84h1.12L882.69,265.81z M885.78,253.73l1.12-1.12l-0.56-1.12l-0.84-0.56l-0.56,0.84l-0.28,0.56l0.28,1.12L885.78,253.73z
		 M887.47,273.12l-0.28-0.28h-0.84l-0.28,0.56l0.56,0.56h0.56l0.28-0.56V273.12z M889.99,242.5h1.69l0.28-0.28l1.12,0.28l0.56-0.84
		l-0.84-0.84l-0.84,0.56h-0.56l-0.28-0.28l-1.12-0.56l-1.12,0.28v0.84L889.99,242.5z M897.02,259.63l-0.84-0.28l-0.84,0.56h-1.69
		l-1.12-0.56l-0.84,0.84l-0.28,1.4l1.12,0.84l0.28,1.12l0.84-0.28l1.69-1.12l1.12-1.4l0.56-0.56V259.63z M902.07,246.43l-0.28-0.84
		h-0.28v-0.28l-0.28-0.28v1.12l0.28,0.56l0.28,0.28L902.07,246.43z M919.49,249.8l-0.56-0.56l-0.56,0.28l-1.12,0.28v1.12l0.28,1.4
		l0.28,1.12l-0.84,1.4l-0.28,1.69l0.56,0.28h0.28l1.12-1.97v-1.97l-0.56-0.84l0.56-0.84l0.84-0.56V249.8z M922.3,241.09l-1.12-1.12
		l-1.4-0.28l-0.84,0.84l0.28,1.4l-0.28,0.84l-0.56,0.84l1.69-0.28l0.84-1.12h0.28v-0.28l0.84-0.28L922.3,241.09z M924.83,251.21
		l-0.56-0.28l-0.56,0.28l-0.28,0.56v0.28l0.28,0.28l0.84-0.28l0.28-0.28V251.21z M931.57,229.3l-0.28-0.56l-0.28-0.28h-1.12
		l-1.12,1.12l1.4,0.28L931.57,229.3z"/>
	<path class="st0" d="M1154.59,267.78l-1.12,2.53l-3.65,1.12h-19.66l-15.45-0.28h-4.49l-12.64,0.56h-3.65l-2.53-1.12l-2.25-2.25
		l-8.99-12.64l-2.53-3.37l-8.99-12.08l-2.53-3.37l-7.87-12.92l-2.53-3.37l-8.99-12.08l-1.97-2.25l-1.69-0.84l-3.37-0.28l-8.99-0.56
		l-3.65,0.28l-2.25,1.69l-0.84,3.65l-0.56,15.45l0.28,4.49l1.12,15.73l0.28,4.49l0.28,6.74v4.49l-0.28,4.49l-0.56,3.37l-1.4,1.4
		l-3.09,0.84h-4.49l-13.48-0.84l-12.92,0.84h-4.49l-12.92-0.84l-3.37-0.56l-1.69-1.12l-0.56-2.81l-0.28-3.93l-0.28-4.21l0.56-7.3
		l0.28-4.49l1.12-15.17v-4.49l-0.84-15.17l-0.28-4.49l-0.28-14.89v-4.49l0.84-15.17v-4.49l-0.84-15.17v-4.49l0.84-15.17v-4.49
		l0.56-14.89v-4.49l-0.28-15.17v-4.49l-0.56-9.27l0.28-4.21l0.28-1.69l0.84-3.65l1.69-2.25l3.37-0.84l2.25-0.28l4.21-0.28
		l12.64,0.56l33.43,1.12l19.1-1.12h4.5l18.54,1.12h10.67l4.78,0.28l4.21,0.84l5.9,1.69l4.21,1.4l4.21,1.69l4.5,1.69l4.21,1.97
		l3.65,2.25l5.34,3.65l3.09,2.53l2.81,2.81l2.81,3.37l3.93,5.62l2.53,3.65l3.37,5.34l1.97,3.93l1.97,4.21l1.4,4.49l0.84,4.49
		l0.28,4.49l0.56,6.18v4.49l-0.28,4.49l-0.56,4.78l-0.84,4.77l-1.12,4.49l-1.69,4.21l-1.97,4.21l-2.53,4.21l-2.53,3.65l-2.53,3.37
		l-2.53,3.09l-4.49,4.49l-3.09,2.53l-5.62,3.09l-3.37,1.97l-3.65,1.97l-3.65,0.84l-2.25,0.84l1.12,2.25l10.11,14.33l2.53,3.37
		l10.11,13.76l2.81,3.37l10.11,14.04l2.81,3.37l8.71,10.11l2.53,3.09L1154.59,267.78z M979.03,96.15l-1.12-0.84l-1.12-0.56v0.84
		l0.84,0.56H979.03z M981.28,192.5l-0.56-0.28h-0.28l-0.28,0.56l0.28,0.56l0.56,0.28h0.28V192.5z M987.46,187.72l0.28,1.12
		l0.28-1.12l-0.56-0.84V187.72z M988.3,231.26l-0.28-0.28l-0.28,0.56l-0.28,0.28v0.84l0.28,0.28l0.56-0.28V231.26z M993.08,227.61
		l-0.84-0.84l-0.84-0.56l-1.12-0.56l-0.56-1.69l-1.12-1.12l-0.56,0.56l0.56,1.97l1.69,1.4l0.84,0.28l0.28,0.84l-0.28,0.84l0.56,0.84
		l0.84-0.28l0.28-0.56L993.08,227.61z M989.14,91.37l0.28,1.4l0.84,0.84l0.84-0.28l0.56-0.84l0.56-0.28l0.84-0.56l-1.12-0.56
		l-1.4,0.28l-0.84-0.28L989.14,91.37z M992.8,202.33v-1.69l0.56-1.12l-0.84-1.12l-1.12-0.28l-0.84,1.12l-0.84,0.28v1.12l0.84,1.4
		l1.97,1.97h0.56l0.28-0.84L992.8,202.33z M994.2,83.23l-0.28-0.28h-1.12v0.28l0.28,0.56h0.84L994.2,83.23z M995.6,87.44l0.56,0.28
		l0.84,0.28l0.56-0.56l1.12-2.25l1.4-0.56l0.84-0.84l-0.28-0.56h-0.28l-1.69,0.56l-0.84,1.4l-0.28,0.84l-0.84,0.28h-0.56l-0.56,0.56
		V87.44z M998.69,236.6l-0.28-1.4l-0.84-0.56l-0.56-0.84l-0.28-0.84l-0.84,1.12l0.56,1.69l-0.28,0.28l-0.28,0.84l0.56,0.56h1.12
		L998.69,236.6z M1001.22,191.94l-0.56-0.56l-0.56-0.28l-1.12,0.28l-0.28,1.12l1.12,1.12l0.84-0.56L1001.22,191.94z M1000.66,250.36
		l-1.12,1.12l-0.28,1.4l0.28,0.28h0.28l0.84-1.12V250.36z M1003.19,167.22l0.84-0.56l0.56-0.56l0.28-1.4l-0.84-0.56l-0.84,0.56
		l-0.28,1.4L1003.19,167.22z M1006,213.85l-1.12-1.12h-0.56l-0.28,0.56l0.28,0.84l0.84,0.28l0.28-0.28L1006,213.85z M1008.81,186.6
		l0.56-1.4l-1.12-1.12h-0.28l-2.53,0.56l-0.56,2.81l1.41-0.84H1008.81z M1008.25,98.68l0.28,0.56l0.28,0.28l0.56-0.56l0.28-0.56
		v-0.56h-0.56l-0.84,0.28V98.68z M1010.49,197.27l-0.28-1.12l-0.28-0.28l-0.28,0.28l-0.84,1.12v1.97l-0.28,1.12l0.84,0.84l0.56-0.84
		l-0.28-1.12l0.28-0.56v-0.56L1010.49,197.27z M1011.33,170.59h-0.84l-0.56,1.12l-0.28,1.4l1.12,1.12v-1.12l-0.28-0.84l0.84-0.84
		V170.59z M1018.92,86.88l1.12,0.28l0.56-0.84l0.28-1.12l-0.84-0.84l-0.28-0.84l-0.84,0.28l-1.4,0.84l-0.84,1.4l-0.56,0.28v0.56
		l0.56,0.28l0.84-0.28H1018.92z M1023.41,102.89v-0.28l-1.12-1.12h-1.4l-0.28,0.28l-0.84-0.28l-0.56,0.84l0.56,0.56l1.12-0.28h0.56
		l0.84,0.56L1023.41,102.89z M1084.37,154.3l1.97-4.21l1.12-4.49l0.28-4.49l-0.28-4.78l-0.56-4.78l-1.12-4.21l-1.97-4.21l-2.53-3.37
		l-3.09-2.53l-3.93-1.69l-6.18-1.4l-4.49-0.56l-14.04-0.28h-4.49l-14.33,0.84l-3.37,0.28l-1.97,0.84l-1.69,1.69l-0.28,3.09
		l0.28,6.46l0.56,4.49l0.56,4.78l0.28,4.78l-0.56,15.45l0.28,3.09l0.56,1.69l1.97,0.84l3.37,0.56l14.61,1.12h4.49l18.54-1.12
		l6.18-1.12l3.65-1.4l3.37-1.97L1084.37,154.3z M1023.98,75.08l0.28,0.28v0.28l0.84-0.28l0.28-0.28l-0.56-0.56h-0.56L1023.98,75.08z
		 M1025.66,91.94l-0.28,0.28l-0.28,0.56l0.28,1.12l0.84,0.28l0.56-0.56v-0.56l-0.28-0.84L1025.66,91.94z M1028.19,81.54h0.84
		l0.84-0.56h-0.84L1028.19,81.54z M1029.87,97.55l0.84,1.12l0.28,1.4v1.12l1.12,0.28l0.84-0.84v-0.56l-0.56-2.25L1029.87,97.55z
		 M1040.83,102.61l1.69-0.56l0.84,0.84l0.56-0.28v-0.56l-0.84-0.28l-1.12-0.28L1040.83,102.61z M1046.17,95.03l0.56,0.84h0.28
		l0.28,0.28l1.12,0.56l0.56-0.84l-0.56-1.12h-1.12L1046.17,95.03z M1071.45,207.95l-0.28-1.12h-0.56l-0.28,0.28v1.12l0.84,1.12
		L1071.45,207.95z M1084.09,220.59l-0.28-1.69l-1.12-0.84v-0.28l-0.28-0.84l-0.56-0.28l-1.12,0.84l-0.56,1.4l0.84,0.84l1.4-0.28
		L1084.09,220.59z M1083.81,95.03l0.84,0.84l0.84-0.56v-0.28l-0.28-0.56h-1.41V95.03z M1088.02,240.25l-0.28-0.56l-0.56-0.56
		l-0.84,0.28l-0.28,0.56v0.56h0.84l0.56,0.28L1088.02,240.25z M1090.55,100.36l-0.28-2.53l-1.4-1.4h-0.84l-0.28,0.56l1.12,1.4
		L1090.55,100.36z M1092.51,222.27l1.12-0.28l1.4,0.84l1.4,0.28l0.28-0.28v-0.56l-1.69-1.12h-1.97l-0.84,0.28l-0.84-0.56l-0.28-0.84
		h-0.84l-0.56,0.56v0.56l0.28,0.84l1.12,0.28H1092.51z M1091.67,215.53l0.28,0.56l0.28,0.28h0.56v-1.12l-0.28-0.28h-0.56
		L1091.67,215.53z M1092.51,110.76l1.97-0.84l0.28-1.69l-0.56-0.56h-0.84l-0.84,1.12V110.76z M1101.22,259.91l-0.84-0.56l-0.56-0.56
		l-2.53-0.28h-1.4l-1.4-0.28l-0.28-0.56h-1.12l0.56,1.69l0.28,0.28l1.69-0.28l1.69,0.56l1.4,0.84h2.25l0.28-0.28V259.91z
		 M1093.92,102.61l0.28,0.28v0.28h0.56l0.56-0.56v-0.56l-0.28-0.28h-0.56l-0.56,0.56V102.61z M1096.17,157.1l-1.41,0.56v0.84
		l1.41-0.28l1.68-1.12H1096.17z M1096.73,111.88l-1.4,0.84l0.56,1.4l0.56,0.28l0.84-0.56l0.84-0.84L1096.73,111.88z M1097.29,102.61
		l0.28,2.25l1.4,0.84l1.69-0.56l2.81-1.12l3.37-1.4l-4.21-1.4h-3.65L1097.29,102.61z M1103.47,113l-0.28-0.84l-0.84-0.84h-0.28
		l-0.28-0.28l-1.12-0.84l-1.12-1.69l-1.97-1.12l1.4,2.81l1.12,0.56l0.84,1.69l0.28,0.28V113H1103.47z M1097.85,99.52h1.12l0.28-0.56
		V98.4h-1.12v0.56l-0.28,0.28V99.52z M1104.87,123.96l0.56-0.28l0.84-0.84l0.56-0.28v-0.28l-0.56-0.28h-1.12l-0.56,0.56l-0.56,0.28
		l-0.84,0.56l-0.84,0.28l-0.28-0.56l-0.56-0.84l0.84-0.56l1.12-0.84l0.56-1.12l0.56-0.84h-2.81l-2.25-0.28v1.4l0.84,1.12l0.28,1.97
		l1.12,0.56h0.56l-0.56,0.28l-0.28,0.28l1.12-0.28H1104.87z M1100.1,115.81v0.28h0.28l1.12,1.4v-1.97l-0.56-0.56h-0.56l-0.56,0.56
		L1100.1,115.81z M1102.07,151.77l-0.84-0.84l-0.56,0.28v0.56l0.28,0.56h0.28l0.28,0.28h0.56V151.77z M1102.07,143.06l0.28,0.56
		l0.28,0.28h0.56v-0.28l-0.84-0.84h-0.56L1102.07,143.06z M1106.56,239.13l-0.28-0.56h-0.84l-0.56,0.28h-0.56l-0.84,0.28h-0.56
		l-0.56,0.56l0.28,0.56l0.28,0.28h0.28l0.56,0.56l0.28,0.56l0.28,1.12l0.84-0.28l0.56-0.56l0.28-0.56l0.56-0.56l-0.28-0.28v-0.56
		l0.28-0.56V239.13z M1104.31,99.24l0.56,1.4h1.97l0.28-1.12l-0.84-1.12l-0.84-0.28l-1.12-0.28V99.24z M1104.59,116.94l0.56,0.84
		h0.84l0.28-0.84l-1.12-1.12l-0.56-0.28l-0.28,0.56L1104.59,116.94z M1109.09,108.79l-1.12-0.84l-3.09-1.97l0.56,2.25l1.12-0.28
		l1.12,0.28l-0.28,1.4v0.56l-0.28,0.84l0.84-1.12L1109.09,108.79z M1105.16,132.67l0.84,0.84v0.28h1.4l0.28-0.56l0.56,0.28h3.09
		l0.56-0.28h0.84l-0.28-0.28l-2.25-0.84l-0.84-0.56l-0.84-0.28l0.28-1.12l-0.84-0.56l-0.84,0.56l0.28,1.12v0.28l-0.28,0.28v0.56
		h-1.4L1105.16,132.67z M1105.44,94.18l0.28,0.84l0.56,0.56l0.84,0.56l0.84-0.56l0.28-0.56l-0.56-0.84H1105.44z M1111.62,123.12
		h-1.4l-0.56,0.28h-0.28v0.28l-0.28,0.28h-0.56l-0.56,0.28l-1.12-0.56l-0.56,0.56l-0.28,0.56l0.84,1.12l1.4-0.56l0.28,0.28h1.97
		l1.12-1.4V123.12z M1110.21,148.4l0.84-0.28l0.56-0.28l-1.69-0.56l-1.12-0.56l-0.28-0.28l-0.84,1.12l-1.12,0.84l-0.56,0.56
		l0.28,0.84l0.84-0.28h0.56l1.12-0.84l0.28-0.28H1110.21z M1109.65,119.46h-1.12l-1.41,1.4l0.28,0.56h0.84l0.28-0.28l0.56-0.28h0.56
		l0.56-0.28l0.28,0.28l0.28,0.56l1.69,1.12l0.28,0.28h0.84l1.12,0.56l0.28-0.56v-0.28l0.28-0.28l-0.84-0.56l-0.56-0.56h-0.84
		l-1.12-0.28l-0.28-0.56h-0.56l-0.84-0.56L1109.65,119.46z M1116.39,144.75l-0.56-1.69l-2.53-0.84l-1.12-0.28l-0.28-0.56l-0.56-0.56
		l-0.56-0.28l-0.56-0.56l-1.41-0.84l-0.56,0.28h-0.84v0.56l0.84,0.56l2.25,1.69l2.25,1.4l0.84,0.28h0.84l-0.28,1.69l0.56,1.12
		l0.84-0.84l0.28-0.56L1116.39,144.75z M1110.49,250.36l-0.28-0.84l-1.12-0.56l-0.56,0.28l-0.84,0.84l0.56,1.12l1.12,0.56l0.56-0.56
		h0.28L1110.49,250.36z M1110.49,135.48l-0.56-0.28l-0.56,0.56v1.4l0.84,0.84l1.12-0.56v-1.12L1110.49,135.48z M1110.21,107.1
		l0.56,0.84l0.28,0.56l1.41,2.25l0.28,2.25l1.97-2.53l-1.12-3.37l-0.56-0.56l-1.12-0.56l-0.84-0.56l-0.56,0.84L1110.21,107.1z
		 M1110.21,116.09l0.56,1.69l1.12-1.12l-0.28-1.4l-0.28-0.28h-0.56L1110.21,116.09z M1111.33,128.45l-0.84,0.56l-0.28,1.12
		l0.56,0.56h1.69l0.28-0.84l-0.56-1.12L1111.33,128.45z M1110.77,103.17l0.28,0.56v0.28l1.12,1.12h0.56l1.12,0.56l0.56,0.56h0.28
		l1.97,0.84v-0.84l-0.84-0.84l-0.28-0.56l-0.56-0.28l-1.4-1.69l-1.69-0.84l-0.84,0.28v0.56L1110.77,103.17z M1112.18,154.3h-0.56
		l-0.28,0.56l-0.56,0.56l0.28,0.56h0.84l0.28-0.56V154.3z M1117.8,117.5l-1.4,0.28l-2.81-1.4l-0.28-0.28l-0.28,0.28v0.56l-0.28,0.84
		v1.97h0.56l1.68,0.56l0.56,0.56l0.56,0.28l0.56-0.84l0.28-0.84h1.97l0.28,2.53l-0.28,1.97l1.69,1.12l1.4,0.84l1.12-0.56v-1.4
		l-1.12-0.56l-0.28-1.12l0.56-0.84l1.12-0.28l1.69-1.12l0.56-0.84l1.69-0.28v-2.81l0.84-0.56l0.56-0.84l0.84-0.56l0.56-0.56v-0.28
		l-4.21-5.34v-0.28h-0.56l-0.84-0.84l-1.69-1.12l0.56,2.53l0.28,1.12l1.12,1.4l0.28,1.4l1.12,2.81l-0.28,1.4l-0.56,1.69l-1.69,0.56
		l-1.69,0.28l-1.68-1.69h-0.84L1117.8,117.5z M1114.99,163l-0.84-0.56l-0.84,0.28l-0.56,0.56v0.28l0.84,0.56h0.84l0.56-0.28V163z
		 M1116.39,259.63l-0.56-2.81l-2.53-0.84l0.56,1.69v2.25l-0.28,0.56l1.4,0.56l1.12-1.12v-0.28H1116.39z M1113.86,237.44l0.84,0.56
		l1.12-0.56l-1.12-0.28L1113.86,237.44z M1118.08,111.32l0.28,0.84l0.28,0.56V113l0.28,0.56l0.84,0.28l1.12,0.28l0.84-1.4l0.84-1.69
		l-0.56-0.84l-1.4-2.81l-1.97-0.84l-0.56,1.69V111.32z M1122.57,147.55l-0.28-0.56v-0.56h-0.84l-0.84,0.28l-0.56,0.84l-0.56,0.56
		l-0.56,1.12l0.56,0.84h1.12l0.84-0.84L1122.57,147.55z M1125.38,128.45l-0.28-1.12l-1.12-0.28l-0.84,0.28l-0.28,0.84l0.28,0.56
		l0.28,0.28v0.28l0.84,0.56l0.56,0.28l0.28-0.28h0.28V128.45z M1128.47,263.28l-1.12-0.56l-1.12-0.28l-1.4,1.12h1.12l0.84-0.28
		l0.84,0.84h0.84V263.28z M1126.22,124.24l-0.28-0.56l-0.84,0.56v0.84l0.28,0.56v0.56l0.56-0.84l0.28-0.84V124.24z M1135.21,257.1
		l-0.56-1.12l-1.4-0.28h-1.12l0.56,1.12l0.56,0.56l1.12,0.56L1135.21,257.1z"/>
	<path class="st0" d="M1241.39,68.62l12.92,0.28l4.78,0.84l3.09,2.25l1.4,3.65l3.93,10.96l1.69,4.21l7.02,13.2l1.68,3.93l6.18,13.76
		l1.68,3.93l5.06,14.33l1.69,3.93l6.18,13.48l1.69,3.93l6.18,13.76l1.69,3.93l5.62,14.05l1.69,3.93l8.71,17.42l6.74,13.2l1.97,3.93
		l7.58,17.7l5.62,14.04l0.84,3.93l-1.97,3.09l-3.09,1.4l-3.65,0.56h-3.93l-6.46-0.56l-4.21-0.28h-12.64l-17.42,1.12l-3.65-1.4
		l-1.69-1.97l-1.4-3.09l-8.71-23.6l-1.97-2.81l-2.53-0.56l-3.37-0.28l-16.85-1.12h-4.49l-21.07-0.56l-16.85-0.28h-4.21l-4.21,0.28
		h-12.92l-3.65,0.56l-2.25,1.4l-1.69,3.37l-6.46,19.1l-1.69,4.49l-3.09,3.65l-4.21,1.4h-4.49l-16.29-0.84h-4.49l-17.42,1.12
		l-3.65,0.28l-3.37-1.69l-2.25-3.09l0.28-3.65l0.56-2.25l1.69-4.49l3.93-8.71l1.69-4.21l7.02-15.73l1.69-3.93l7.3-15.73l1.69-4.21
		l6.46-15.17l1.69-4.21l7.58-15.73l1.69-3.93l10.11-23.03l7.87-16.85l1.97-4.49l6.18-12.64l1.97-4.49l5.34-12.92l1.69-4.21
		l5.06-11.52l1.4-3.09l2.81-1.69l4.21-0.84l12.92-0.56H1241.39z M1162.46,188.28l-0.56,0.56l0.56,2.25l0.56-0.28l0.84-0.56v-1.4
		l-0.84-0.56H1162.46z M1177.9,163.57l0.56,1.12l-0.28,1.12l-1.12,0.28l-1.97-0.56l-1.97-0.28l-1.69-0.84l-1.12,1.4l-1.69-0.28
		l-1.69-0.56l-0.56,1.97l-0.84,1.69l-0.28,3.93l2.25-1.69l1.69-2.53l2.53-1.69l1.12-0.56l3.37,1.69l1.4,2.81l2.25,1.97l0.28,1.69
		l0.28,1.97l1.69-0.56l1.12-0.84l0.84-0.84l-0.84-2.25l-0.84-1.4l-1.69,0.56l-1.4-1.12l1.12-1.97l1.12-1.69l-0.56-1.97l-0.84-1.4
		l-1.69-0.28L1177.9,163.57z M1167.51,188l-0.84,1.12l-0.28,1.12l0.28,1.12l1.4-0.28l1.12-1.12v-1.12l-0.56-0.84H1167.51z
		 M1170.32,170.59l-2.25,3.09l0.28,2.25l2.25-0.28l0.56-0.28l0.56-0.56l1.41-0.84l1.68-1.4l-0.84-1.97H1170.32z M1169.76,177.61
		l-0.28,0.28l-0.56,1.97l-0.28,1.12v1.12l-0.28,0.84l0.84,0.56h1.68l0.28-0.84l-0.28-1.12l-0.28-1.97l-0.56-1.97H1169.76z
		 M1169.2,210.76l-0.56,0.28l0.28,0.84v0.56h0.56l0.56-0.56v-0.56l-0.56-0.84L1169.2,210.76z M1169.2,196.15v0.56l0.28,0.56h1.12
		l-0.56-1.12H1169.2z M1170.88,205.42l-0.56,0.84l-0.56,0.56v0.28l0.28,0.56l0.56,0.28l0.56-0.56l0.56-0.84l1.69-1.97
		L1170.88,205.42z M1170.88,192.22l0.56,1.69l0.56,1.4v0.56l1.97,1.12l1.12-0.56l1.12-0.28l0.56-1.69l-1.4-1.4l-1.97-2.53l-1.4-1.4
		l-1.12-1.69V192.22z M1172.01,180.42l-0.28,0.28v0.28l0.28,1.12l0.28,0.84l1.68,0.28l0.28-0.84l0.56-0.56l1.12-2.25l0.84-0.84
		l1.12-0.56l-3.65-0.56L1172.01,180.42z M1173.97,199.24l-0.28,0.28l0.28,0.84l0.84,0.56l0.56-0.56v-0.84l-0.56-0.28H1173.97z
		 M1176.22,160.76l-0.84,0.56l-0.28,0.28l0.28,0.56h0.84l0.56-0.56v-0.56l0.28-0.56L1176.22,160.76z M1175.94,184.35l-0.28,1.69
		l-0.56,2.53l1.97-0.84l-0.84-2.53l2.81-1.12l-2.81-0.56L1175.94,184.35z M1179.03,157.67l-0.56,0.84l-0.28,1.12l0.84,0.84
		l0.84,0.28l0.56-0.56l0.28-1.4l-0.84-1.12H1179.03z M1182.12,188l-0.56,1.12l-1.12,2.81l-1.4,1.4l-0.28,2.25l1.41-1.12l1.12-1.12
		v-1.12l2.25-1.97l-0.28-1.69l-0.28-1.97L1182.12,188z M1180.43,197.83l-0.28,0.84l0.28,0.84l1.69,0.56l1.69-0.56l-1.4-1.69H1180.43
		z M1180.43,177.89v0.56l0.28,0.28h1.69l0.84-1.4l-1.41-0.28L1180.43,177.89z M1183.8,194.46l-0.28,0.56l1.4,1.12l1.41-0.56v-0.84
		l-0.84-0.56l-1.4-0.56L1183.8,194.46z M1184.65,169.46l-0.56,0.28l0.56,2.25l1.12,1.4v3.65l0.28,1.4l1.4,0.56l0.84-0.28l0.56-0.84
		l-0.28-1.12l-0.84-0.28l-0.84-1.12l0.28-1.4l-0.28-2.53l-1.97-2.25L1184.65,169.46z M1185.49,143.06l-0.56,0.84l-0.56,1.12
		l0.56,1.12h1.41l0.84-1.4l0.28-1.12l-0.84-0.84L1185.49,143.06z M1185.21,181.82l-0.56,1.69l0.28,0.56h0.84l0.28-0.56l0.28-0.84
		l-0.28-0.84H1185.21z M1186.33,129.86l-0.28,0.84l0.28,0.56l1.12,0.28l0.84-0.56l0.28-0.56l-0.28-0.56l-0.84-0.28L1186.33,129.86z
		 M1186.61,186.88l-0.28,1.69l0.28,0.56h0.56l0.56-1.4l0.56-1.97L1186.61,186.88z M1188.58,170.59l-0.56,0.56l-0.28,0.56l1.12,0.84
		l1.69-0.28l0.56,0.28h0.56l0.84,1.12l1.4-0.56l-0.28-1.4l-1.4-0.28l-0.56-0.56l-1.4-0.84L1188.58,170.59z M1193.35,182.67
		l-0.56,0.84l-1.12-0.56l-1.4-0.56h-1.12l-1.12,0.28l0.56,1.12l0.84,1.12l1.4,2.25l1.12-0.84l0.56-1.12l1.4-1.12l-0.28-2.25
		L1193.35,182.67z M1192.51,175.92l-1.69,0.56l-0.56,1.69l0.56,1.69h1.4l1.12,0.56l0.84,0.56l0.84,0.84h0.84l0.28-0.56l-0.28-1.12
		l-0.28-2.25l-1.12-2.25l-1.12-0.84L1192.51,175.92z M1190.83,164.97l-0.28,1.12l0.84,1.12h0.84l0.84-0.84v-0.84l-0.84-0.28
		l-0.84-0.56L1190.83,164.97z M1190.83,148.12l0.84,1.69l3.93,1.12l2.25,2.25l1.4,0.84l1.69-0.56l0.28-1.12l-0.84-0.56l-2.81-1.4
		l-2.53-1.4h-0.84l-0.84-0.28l-0.28-1.4l-0.84-1.4L1190.83,148.12z M1192.51,137.16V138l0.28,0.56h0.56l0.28-0.56v-0.84l-0.56-0.56
		L1192.51,137.16z M1198.41,162.16l-1.12-0.28l-0.84-0.28l-1.69-0.28l-1.4-0.28l1.4,2.81l0.56,2.81l-0.84,0.56l0.28,1.12h1.12
		l0.28-1.12l1.12-0.84l0.84-1.12h1.4l1.12-0.84l0.56-1.69l-0.56-1.69l-1.12-0.28L1198.41,162.16z M1199.25,141.94l-0.84,1.69h-1.69
		l-1.4,0.84l3.93,1.12l1.69-2.81l0.28-1.12l-0.56-0.56L1199.25,141.94z M1196.44,155.98l-0.56,0.28l-0.28,1.12l0.84,1.12l0.56,0.28
		l0.56-0.56l0.28-1.12l-0.84-1.12H1196.44z M1203.75,136.88v0.56l0.84,0.28l0.56,0.28l0.56-0.56v-0.84l-0.84-0.28L1203.75,136.88z
		 M1205.43,127.89l-0.56,1.97l1.4-1.12l0.56-1.12v-0.56l-0.56-0.28L1205.43,127.89z M1205.71,146.43l-0.28,0.84l1.12,0.56l0.84-0.28
		v-0.84l-1.12-0.56L1205.71,146.43z M1227.06,134.91l-2.81,2.81l-7.58,19.1l-1.69,4.21l-7.3,18.82l-0.84,4.21l0.84,3.37l3.09,1.4
		l3.93,0.56h17.7l13.2,0.84l3.65-1.12l2.25-2.25l0.84-2.81l-1.12-3.65l-6.18-19.1l-1.41-4.21l-5.62-16.57l-1.41-3.65l-2.81-1.97
		l-3.65-0.84L1227.06,134.91z M1220.04,106.54l0.28,1.12h2.81l-0.56-1.12l-0.56-0.56l-1.4-0.56L1220.04,106.54z M1225.94,98.4v0.84
		l1.12,0.28l1.4,0.28l1.12-1.12h-1.12l-0.84,0.28l-0.84-0.56H1225.94z M1238.86,101.21v0.28l0.84,2.81l2.53,0.56l-0.84-1.69v-2.81
		l-1.4-0.28L1238.86,101.21z M1241.95,123.96l1.12,0.28l0.84-0.56l-0.84-0.28L1241.95,123.96z M1246.16,109.35l-0.28,0.84l0.28,0.84
		l0.84,0.56l0.56-0.56l0.56-0.84l-0.56-0.84l-0.84-0.84L1246.16,109.35z M1247.85,130.7l-0.56,0.56l0.56,0.56h0.56l0.28-0.56v-0.28
		l-0.28-0.28H1247.85z M1251.5,98.4h-1.4v0.56l1.12,1.12h0.28l0.28,0.28l2.53-0.28h1.12l1.97,0.28l0.84-0.56l0.56-0.56l-1.12-0.56
		l-2.25,0.28h-1.69l-1.97-0.84L1251.5,98.4z M1256.28,117.5h-2.25l-0.56-0.28l-0.28,0.56l-0.56,0.28v0.56l-0.28,0.84l0.28,0.28
		l0.28,0.56v1.12l0.56-0.28l0.84-0.56l2.25-2.25l0.56-0.28l0.28-0.56l-0.56-0.28L1256.28,117.5z M1261.33,131.26v0.28l1.4,1.4
		l1.97,0.56l1.12-0.28l0.84,0.84v0.84l0.84,0.28l0.56-0.56l0.28-0.56l-0.28-1.12l-0.84-0.28h-1.4l-1.4-0.28l-1.12-1.12l-1.69-0.28
		L1261.33,131.26z M1264.42,138.28l-0.28,0.56v0.56l0.28,0.56h0.56l0.28-0.56v-0.56l-0.28-0.56H1264.42z M1272.01,110.48l-0.28,0.56
		l0.28,1.12l0.56,0.84l0.84-0.28l0.28-0.56v-0.84l-0.28-0.28l-0.56-0.28l-0.28-0.28H1272.01z M1273.69,137.16l1.12,1.4v1.12
		l0.56,0.28l1.4-0.84l0.56-1.12l-0.56-1.12h-1.4l-0.56-0.56l-0.84-0.56L1273.69,137.16z M1282.96,194.75h-0.28l-0.28,1.12l0.84,1.12
		l0.28-1.12v-1.4L1282.96,194.75z M1284.65,150.36v1.4h0.84l0.28-1.4l-0.56-1.4L1284.65,150.36z M1290.54,205.14l-0.56,1.4
		l0.84,0.84l1.12-0.28l1.12,1.12l0.28-1.4l-0.84-0.84v-0.28l-0.28-0.84l-0.56-0.28L1290.54,205.14z M1293.07,225.36l-0.28,0.28
		l-0.28,0.56l0.84,0.28h0.56l0.56-0.28l-0.56-1.12L1293.07,225.36z M1294.48,237.16l-0.28,0.84l0.84,0.56v1.97l0.56,0.56l0.28,0.84
		h0.56l0.28-0.56l-0.28-0.84v-0.84l-0.56-1.12v-0.28h-0.28l-0.28-1.12H1294.48z M1298.13,208.79v0.84l0.28,0.84l0.84,0.28h2.25
		l1.12,0.84l1.4,0.56l0.28-0.28v-0.28l-1.41-1.4l-1.68-0.28l-0.84,0.28l-0.56-0.56l-0.28-0.84l-0.84-0.28L1298.13,208.79z
		 M1300.94,204.3l-0.28,0.56v0.28l0.28,0.56h0.56v-1.4H1300.94z M1306,239.13l-0.56,1.12v0.28l0.56,0.84h0.28l0.56-0.28h0.84v-0.56
		l0.28-0.28l-0.56-0.84h-0.56l-0.28-0.28H1306z M1307.12,248.4l-0.84,1.12l-0.28,0.56l-0.28,0.28l0.84,1.12l1.12-0.28h0.28v-0.28
		l1.12-2.25l-1.69-1.97L1307.12,248.4z M1307.4,227.61v0.84l0.84,0.28l0.28,0.84l0.28,0.56v1.12l1.12,0.28l1.12-0.28l0.28-1.12
		l0.56-0.56l-0.28-0.84l-1.4-0.56l-1.69-0.28l-0.56-0.28H1307.4z M1312.74,257.95l0.84,0.56l0.56,0.28l0.28,1.12l0.56,0.28
		l0.28-0.56l-0.28-0.84l-0.84-0.84H1312.74z M1316.95,233.23v0.28l0.28,0.56h1.12l-0.84-0.56l-0.28-0.28H1316.95z M1320.88,228.17
		h0.28v-0.28L1320.88,228.17z M1321.72,256.54v0.84l0.84,0.84l0.84-0.28l0.28-0.84l-0.84-0.84l-0.84-0.56L1321.72,256.54z"/>
</g>
<g>
	<path class="st1" d="M564.06,310.8c0.74,0.74,0.97,1.48,0.69,2.22c-0.28,0.74-0.56,1.3-0.83,1.67c-0.28,0.37-0.83,0.88-1.67,1.53
		c-0.83,0.65-1.44,1.07-1.81,1.25c-3.71,3.71-7.22,7.73-10.56,12.08c-3.33,4.35-7.18,9.72-11.53,16.11
		c-4.35,6.39-7.46,10.79-9.31,13.19c-14.26,19.63-29.54,26.67-45.83,21.11c-8.33-2.78-14.96-8.29-19.86-16.53
		c-4.9-8.24-7.36-18.01-7.36-29.31c0-17.78,6.02-34.86,18.06-51.25c12.04-16.39,25.65-26.16,40.83-29.31
		c12.22-2.4,20-0.37,23.33,6.11c0.56,0.93,0.92,1.9,1.11,2.92c0.18,1.02,0.14,2.08-0.14,3.19c-0.28,1.11-0.56,2.08-0.83,2.92
		c-0.28,0.83-0.83,1.81-1.67,2.92c-0.83,1.11-1.48,1.99-1.94,2.64c-0.46,0.65-1.3,1.48-2.5,2.5c-1.21,1.02-2.04,1.76-2.5,2.22
		c-0.46,0.46-1.3,1.21-2.5,2.22c-1.21,1.02-1.9,1.62-2.08,1.81c-5,4.26-10.37,8.06-16.11,11.39c-1.11,0.56-2.83,1.44-5.14,2.64
		c-2.32,1.21-4.35,2.32-6.11,3.33c-1.76,1.02-3.38,2.18-4.86,3.47c-8.52,7.6-11.94,19.72-10.28,36.39c0,0.74,0.14,2.69,0.42,5.83
		c0.28,3.15,0.51,5.28,0.69,6.39c0.18,1.11,0.46,3.01,0.83,5.69c0.37,2.69,0.88,4.63,1.53,5.83c0.65,1.21,1.43,2.69,2.36,4.44
		c0.92,1.76,2.13,3.1,3.61,4.03c1.48,0.92,3.06,1.57,4.72,1.94c2.78,0.74,5.37,0.65,7.78-0.28c2.4-0.93,4.77-2.69,7.08-5.28
		c2.31-2.59,4.17-4.86,5.56-6.81c1.39-1.94,3.29-4.67,5.69-8.19c0.74-1.11,1.2-1.94,1.39-2.5c11.11-17.22,21.57-30,31.39-38.33
		c1.11-0.92,1.76-1.48,1.94-1.67c0.18-0.18,0.56-0.46,1.11-0.83c0.56-0.37,1.02-0.6,1.39-0.69c0.37-0.09,0.79-0.18,1.25-0.28
		c0.46-0.09,0.92,0,1.39,0.28C563.27,310.11,563.68,310.44,564.06,310.8z M492.66,292.75c-0.56,0.93-0.83,1.81-0.83,2.64
		s0.74,1.16,2.22,0.97c0.56,0,1.34-0.32,2.36-0.97c1.02-0.65,1.94-1.29,2.78-1.94c0.83-0.65,1.76-1.39,2.78-2.22
		c1.02-0.83,1.71-1.43,2.08-1.81c4.26-2.96,7.78-5.65,10.56-8.06c11.11-9.44,15.18-15.74,12.22-18.89
		c-1.85-2.22-4.82-2.04-8.89,0.56C509.24,268.58,500.81,278.49,492.66,292.75z"/>
	<path class="st1" d="M724.61,313.3c0.56,0.56,0.88,1.11,0.97,1.67c0.09,0.56,0.04,1.16-0.14,1.81c-0.19,0.65-0.51,1.35-0.97,2.08
		c-0.46,0.74-0.93,1.39-1.39,1.94c-0.46,0.56-0.97,1.21-1.53,1.94c-0.56,0.74-1.02,1.39-1.39,1.94
		c-5.19,8.15-10.28,17.6-15.28,28.33c-5,10.74-8.75,19.44-11.25,26.11s-6.16,16.76-10.97,30.28c-1.11,3.15-1.99,5.51-2.64,7.08
		c-0.65,1.57-1.67,3.7-3.06,6.39c-1.39,2.68-2.83,4.67-4.31,5.97c-1.48,1.29-3.43,2.45-5.83,3.47c-2.41,1.02-5.1,1.43-8.06,1.25
		c-13.71-0.74-23.15-10.19-28.33-28.33c-4.26-14.82-6.21-33.8-5.83-56.95c0-3.7,0.09-9.26,0.28-16.67c0-11.11,0-17.31,0-18.61
		c0-0.37,0.04-1.02,0.14-1.94c0.09-0.92,0.18-1.99,0.28-3.19c0.09-1.2,0.18-2.54,0.28-4.03c0.09-1.48,0.14-2.96,0.14-4.44
		c0-1.48,0-2.96,0-4.44c0-1.48,0-2.82,0-4.03c0-1.2-0.1-2.31-0.28-3.33c-0.19-1.02-0.42-1.81-0.69-2.36s-0.6-0.92-0.97-1.11
		c-1.3,0-3.61,2.22-6.94,6.67c-4.26,5.37-8.01,11.07-11.25,17.08c-3.24,6.02-7.08,13.89-11.53,23.61
		c-4.44,9.72-7.32,15.88-8.61,18.47c-0.19,0.56-0.74,1.81-1.67,3.75c-0.93,1.94-1.53,3.24-1.81,3.89c-0.28,0.65-0.88,1.71-1.81,3.19
		c-0.93,1.48-1.81,2.5-2.64,3.06c-0.83,0.56-1.85,1.25-3.06,2.08c-1.21,0.83-2.55,1.39-4.03,1.67c-1.48,0.28-3.06,0.33-4.72,0.14
		c-5.74-0.37-9.91-2.31-12.5-5.83c-2.6-3.52-4.63-8.42-6.11-14.72c-5-20.37-5.74-44.54-2.22-72.5c0.37-3.89,1.71-6.85,4.03-8.89
		c2.31-2.04,5.23-2.87,8.75-2.5c1.85,0.19,3.29,0.69,4.31,1.53c1.02,0.83,1.71,1.85,2.08,3.06c0.37,1.21,0.6,2.55,0.69,4.03
		c0.09,1.48,0.04,2.87-0.14,4.17c-0.37,24.08,1.39,45.74,5.28,65c0.92,5,1.76,7.5,2.5,7.5c0.92,0,2.78-2.31,5.56-6.94
		c21.48-37.04,32.78-56.29,33.89-57.78c2.04-3.52,3.84-6.2,5.42-8.06c1.57-1.85,3.89-3.47,6.94-4.86c3.06-1.39,6.53-1.62,10.42-0.69
		c1.29,0.19,2.45,0.56,3.47,1.11c1.02,0.56,1.94,1.02,2.78,1.39c0.83,0.37,1.62,1.02,2.36,1.94c0.74,0.93,1.29,1.62,1.67,2.08
		c0.37,0.46,0.79,1.35,1.25,2.64c0.46,1.3,0.79,2.13,0.97,2.5c0.18,0.37,0.46,1.35,0.83,2.92c0.37,1.58,0.56,2.5,0.56,2.78
		s0.14,1.35,0.42,3.19c0.28,1.85,0.42,2.87,0.42,3.06c1.67,11.67,2.45,28.57,2.36,50.7c-0.1,22.13,0.51,39.03,1.81,50.7
		c0.92,6.85,1.76,12.4,2.5,16.67c1.11,5.56,3.15,8.7,6.11,9.44c0.56,0,1.06-0.05,1.53-0.14c0.46-0.1,0.92-0.28,1.39-0.56
		c0.46-0.28,0.88-0.65,1.25-1.11c0.37-0.46,0.74-0.93,1.11-1.39c0.37-0.46,0.74-1.07,1.11-1.81c0.37-0.74,0.69-1.39,0.97-1.94
		c0.28-0.56,0.56-1.25,0.83-2.08c0.28-0.83,0.51-1.48,0.69-1.94c0.18-0.46,0.46-1.11,0.83-1.94c0.37-0.83,0.65-1.44,0.83-1.81
		c0.56-1.48,1.67-4.44,3.33-8.89c1.67-4.44,2.82-7.5,3.47-9.17c0.65-1.67,1.81-4.54,3.47-8.61c1.67-4.08,2.92-7.08,3.75-9.03
		c0.83-1.94,2.04-4.81,3.61-8.61c1.57-3.79,2.92-6.76,4.03-8.89c1.11-2.13,2.5-4.86,4.17-8.19c1.67-3.33,3.24-6.2,4.72-8.61
		c1.48-2.4,3.15-5.04,5-7.92c1.85-2.87,3.7-5.6,5.56-8.19c0.37-0.37,0.88-1.15,1.53-2.36c0.65-1.2,1.25-2.17,1.81-2.92
		c0.56-0.74,1.2-1.43,1.94-2.08c0.74-0.65,1.57-0.97,2.5-0.97C722.48,312.19,723.5,312.57,724.61,313.3z"/>
	<path class="st1" d="M792.39,311.08c1.11,0.74,1.71,1.53,1.81,2.36c0.09,0.83-0.05,1.48-0.42,1.94c-0.37,0.46-0.93,1.16-1.67,2.08
		c-0.74,0.93-1.21,1.58-1.39,1.94c-2.04,3.33-4.91,8.43-8.61,15.28c-3.71,6.85-7.22,12.92-10.56,18.19s-6.85,10.14-10.56,14.58
		c-8.52,9.63-18.2,13.52-29.03,11.67c-10.83-1.85-18.75-8.7-23.75-20.56c-5.74-13.52-6.53-30.83-2.36-51.95
		c4.17-21.11,11.43-36.85,21.81-47.22c5.56-5.37,11.48-8.47,17.78-9.31c6.29-0.83,12.5,0.79,18.61,4.86
		c5.18,3.52,7.96,7.69,8.33,12.5c0,0.19,0.09,0.97,0.28,2.36c0.18,1.39,0.23,2.36,0.14,2.92c-0.1,0.56-0.46,1.25-1.11,2.08
		c-0.65,0.83-1.62,1.35-2.92,1.53c-5,1.11-8.06-0.65-9.17-5.28c-2.04-8.33-5.46-12.68-10.28-13.06c-0.93-0.18-1.71-0.23-2.36-0.14
		c-0.65,0.1-1.3,0.33-1.94,0.69c-0.65,0.37-1.21,0.69-1.67,0.97c-0.46,0.28-0.97,0.79-1.53,1.53c-0.56,0.74-1.02,1.25-1.39,1.53
		c-0.37,0.28-0.83,0.88-1.39,1.81c-0.56,0.93-0.88,1.53-0.97,1.81c-0.1,0.28-0.42,0.97-0.97,2.08c-0.56,1.11-0.93,1.67-1.11,1.67
		c-2.6,5-4.63,10.65-6.11,16.94c-1.48,6.3-2.46,11.62-2.92,15.97c-0.46,4.35-0.97,10.23-1.53,17.64c0.18,1.3,0.37,3.33,0.56,6.11
		c0.18,2.78,0.37,4.96,0.56,6.53c0.18,1.58,0.42,3.57,0.69,5.97c0.28,2.41,0.56,4.49,0.83,6.25c0.28,1.76,0.65,3.75,1.11,5.97
		c0.46,2.22,1.02,4.31,1.67,6.25c0.65,1.94,1.34,3.85,2.08,5.69c3.52,7.78,8.15,8.52,13.89,2.22c4.63-4.81,10.42-12.4,17.36-22.78
		c6.94-10.37,11.34-16.85,13.19-19.44c4.26-5.56,6.48-8.52,6.67-8.89c0.18,0,0.6-0.32,1.25-0.97c0.65-0.65,1.06-1.11,1.25-1.39
		c0.18-0.28,0.6-0.6,1.25-0.97c0.65-0.37,1.15-0.6,1.53-0.69c0.37-0.09,0.83-0.09,1.39,0C791.28,310.48,791.83,310.71,792.39,311.08
		z"/>
	<path class="st1" d="M877.67,389.97c1.48,4.07,0.65,6.48-2.5,7.22c-5.93,1.11-9.91-1.3-11.94-7.22
		c-4.82-13.33-7.87-29.91-9.17-49.72c-0.19-2.4-0.23-4.63-0.14-6.67c0.09-2.04,0-4.21-0.28-6.53c-0.28-2.31-0.97-4.4-2.08-6.25
		c-7.6,9.82-11.58,15.1-11.94,15.83c-0.37,0.37-1.3,1.53-2.78,3.47c-1.48,1.94-2.46,3.24-2.92,3.89c-0.46,0.65-1.35,1.81-2.64,3.47
		c-1.3,1.67-2.32,2.92-3.06,3.75c-0.74,0.83-1.71,1.94-2.92,3.33c-1.21,1.39-2.32,2.55-3.33,3.47c-1.02,0.93-2.13,1.94-3.33,3.06
		c-1.21,1.11-2.36,2.13-3.47,3.06c-8.33,6.48-18.43,7.4-30.28,2.78c-8.71-3.33-12.96-10.56-12.78-21.67
		c0.74-29.45,6.76-52.59,18.06-69.45c6.11-9.07,13.7-15.28,22.78-18.61c9.07-3.33,18.89-3.52,29.45-0.56
		c9.07,2.6,16.43,7.87,22.08,15.83c5.65,7.96,8.47,17.13,8.47,27.5c0,0.74,0,5.83,0,15.28c0,9.44,0,14.54,0,15.28
		c0,2.6,0,7.41,0,14.44c0,7.04,0.04,12.36,0.14,15.97c0.09,3.61,0.51,8.24,1.25,13.89C875.07,380.48,876.18,385.53,877.67,389.97z
		 M853.5,291.08c1.29-2.4,2.17-4.58,2.64-6.53c0.46-1.94,0.6-3.61,0.42-5c-0.19-1.39-0.79-2.78-1.81-4.17
		c-1.02-1.39-2.08-2.54-3.19-3.47c-1.11-0.92-2.69-2.04-4.72-3.33c-7.78-5.18-14.4-7.08-19.86-5.69
		c-5.46,1.39-10.51,6.25-15.14,14.58c-3.52,6.11-6.25,13.15-8.19,21.11c-1.94,7.96-3.19,14.58-3.75,19.86s-1.11,12.92-1.67,22.92
		c0.18,1.11,0.14,2.73-0.14,4.86c-0.28,2.13-0.51,4.03-0.69,5.69c-0.19,1.67,0.04,3.29,0.69,4.86c0.65,1.58,1.81,2.64,3.47,3.19
		c0.92,0.74,1.99,0.88,3.19,0.42c1.2-0.46,2.17-0.83,2.92-1.11c0.74-0.28,1.71-1.02,2.92-2.22c1.2-1.2,2.08-2.17,2.64-2.92
		c0.56-0.74,1.34-1.81,2.36-3.19c1.02-1.39,1.81-2.36,2.36-2.92c2.4-2.78,4.77-5.79,7.08-9.03c2.31-3.24,4.35-6.25,6.11-9.03
		c1.76-2.78,3.75-6.02,5.97-9.72c2.22-3.7,4.03-6.81,5.42-9.31c1.39-2.5,3.24-5.88,5.56-10.14
		C850.4,296.55,852.2,293.3,853.5,291.08z"/>
	<path class="st1" d="M1066.28,313.3c0.55,0.56,0.88,1.11,0.97,1.67c0.09,0.56,0.04,1.16-0.14,1.81c-0.19,0.65-0.51,1.35-0.97,2.08
		c-0.46,0.74-0.93,1.39-1.39,1.94c-0.46,0.56-0.97,1.21-1.53,1.94c-0.55,0.74-1.02,1.39-1.39,1.94
		c-5.19,8.15-10.28,17.6-15.28,28.33c-5,10.74-8.75,19.44-11.25,26.11c-2.5,6.67-6.16,16.76-10.97,30.28
		c-1.11,3.15-1.99,5.51-2.64,7.08c-0.65,1.57-1.67,3.7-3.05,6.39c-1.39,2.68-2.83,4.67-4.31,5.97c-1.48,1.29-3.43,2.45-5.83,3.47
		c-2.41,1.02-5.1,1.43-8.06,1.25c-13.71-0.74-23.15-10.19-28.33-28.33c-4.26-14.82-6.21-33.8-5.83-56.95c0-3.7,0.09-9.26,0.28-16.67
		c0-11.11,0-17.31,0-18.61c0-0.37,0.04-1.02,0.14-1.94c0.09-0.92,0.18-1.99,0.28-3.19c0.09-1.2,0.18-2.54,0.28-4.03
		c0.09-1.48,0.14-2.96,0.14-4.44c0-1.48,0-2.96,0-4.44c0-1.48,0-2.82,0-4.03c0-1.2-0.1-2.31-0.28-3.33
		c-0.19-1.02-0.42-1.81-0.69-2.36s-0.6-0.92-0.97-1.11c-1.3,0-3.61,2.22-6.94,6.67c-4.26,5.37-8.01,11.07-11.25,17.08
		c-3.24,6.02-7.08,13.89-11.53,23.61c-4.44,9.72-7.32,15.88-8.61,18.47c-0.19,0.56-0.74,1.81-1.67,3.75
		c-0.93,1.94-1.53,3.24-1.81,3.89c-0.28,0.65-0.88,1.71-1.81,3.19c-0.93,1.48-1.81,2.5-2.64,3.06c-0.83,0.56-1.85,1.25-3.06,2.08
		c-1.21,0.83-2.55,1.39-4.03,1.67c-1.48,0.28-3.06,0.33-4.72,0.14c-5.74-0.37-9.91-2.31-12.5-5.83c-2.6-3.52-4.63-8.42-6.11-14.72
		c-5-20.37-5.74-44.54-2.22-72.5c0.37-3.89,1.71-6.85,4.03-8.89c2.31-2.04,5.23-2.87,8.75-2.5c1.85,0.19,3.29,0.69,4.31,1.53
		c1.02,0.83,1.71,1.85,2.08,3.06c0.37,1.21,0.6,2.55,0.69,4.03c0.09,1.48,0.04,2.87-0.14,4.17c-0.37,24.08,1.39,45.74,5.28,65
		c0.92,5,1.76,7.5,2.5,7.5c0.92,0,2.78-2.31,5.56-6.94c21.48-37.04,32.78-56.29,33.89-57.78c2.04-3.52,3.84-6.2,5.42-8.06
		c1.57-1.85,3.89-3.47,6.94-4.86c3.06-1.39,6.53-1.62,10.42-0.69c1.29,0.19,2.45,0.56,3.47,1.11c1.02,0.56,1.94,1.02,2.78,1.39
		c0.83,0.37,1.62,1.02,2.36,1.94c0.74,0.93,1.29,1.62,1.67,2.08c0.37,0.46,0.79,1.35,1.25,2.64c0.46,1.3,0.79,2.13,0.97,2.5
		c0.18,0.37,0.46,1.35,0.83,2.92c0.37,1.58,0.56,2.5,0.56,2.78s0.14,1.35,0.42,3.19c0.28,1.85,0.42,2.87,0.42,3.06
		c1.67,11.67,2.45,28.57,2.36,50.7c-0.09,22.13,0.51,39.03,1.81,50.7c0.92,6.85,1.76,12.4,2.5,16.67c1.11,5.56,3.15,8.7,6.11,9.44
		c0.55,0,1.06-0.05,1.53-0.14c0.46-0.1,0.92-0.28,1.39-0.56c0.46-0.28,0.88-0.65,1.25-1.11c0.37-0.46,0.74-0.93,1.11-1.39
		c0.37-0.46,0.74-1.07,1.11-1.81c0.37-0.74,0.7-1.39,0.97-1.94c0.28-0.56,0.55-1.25,0.83-2.08c0.28-0.83,0.51-1.48,0.69-1.94
		c0.18-0.46,0.46-1.11,0.83-1.94c0.37-0.83,0.65-1.44,0.83-1.81c0.56-1.48,1.67-4.44,3.33-8.89c1.67-4.44,2.82-7.5,3.47-9.17
		c0.65-1.67,1.8-4.54,3.47-8.61c1.67-4.08,2.92-7.08,3.75-9.03c0.83-1.94,2.04-4.81,3.61-8.61c1.57-3.79,2.92-6.76,4.03-8.89
		c1.11-2.13,2.5-4.86,4.17-8.19c1.67-3.33,3.24-6.2,4.72-8.61c1.48-2.4,3.15-5.04,5-7.92c1.85-2.87,3.7-5.6,5.56-8.19
		c0.37-0.37,0.88-1.15,1.53-2.36c0.65-1.2,1.25-2.17,1.81-2.92c0.55-0.74,1.2-1.43,1.94-2.08c0.74-0.65,1.57-0.97,2.5-0.97
		C1064.15,312.19,1065.17,312.57,1066.28,313.3z"/>
	<path class="st1" d="M1135.44,205.52c1.67-0.18,3.38,0.1,5.14,0.83c1.76,0.74,2.54,1.85,2.36,3.33c0,1.48-0.42,2.32-1.25,2.5
		c-0.83,0.19-1.99,0-3.47-0.56c-1.11-0.56-2.83-0.79-5.14-0.69c-2.32,0.1-4.21,0.28-5.69,0.56c-1.48,0.28-3.43,0.6-5.83,0.97
		c-2.41,0.37-4.17,0.65-5.28,0.83c-11.11,1.3-19.91,2.5-26.39,3.61c-1.11,0.19-2.08,0.56-2.92,1.11c-0.83,0.56-1.48,1.39-1.94,2.5
		c-0.46,1.11-0.79,1.99-0.97,2.64c-0.19,0.65-0.37,1.71-0.56,3.19c-0.19,1.48-0.37,2.41-0.56,2.78
		c-8.15,42.22-11.85,78.8-11.11,109.72c-0.93,16.67,0.46,35.74,4.17,57.22c0.18,0.37,0.37,1.29,0.56,2.78
		c0.18,1.48,0.32,2.64,0.42,3.47c0.09,0.83,0.32,1.85,0.69,3.06c0.37,1.2,0.79,2.13,1.25,2.78c0.46,0.65,1.06,1.25,1.81,1.81
		c0.74,0.56,1.57,0.83,2.5,0.83c1.11,0,2.08-0.23,2.92-0.69c0.83-0.46,1.53-1.3,2.08-2.5c0.56-1.21,0.97-2.27,1.25-3.19
		c0.28-0.93,0.6-2.27,0.97-4.03c0.37-1.76,0.65-2.92,0.83-3.47c0.37-1.48,1.94-7.69,4.72-18.61c2.78-10.92,5-19.26,6.67-25
		c4.44-14.07,11.39-26.29,20.83-36.67c3.15-3.52,5.83-4.35,8.06-2.5c0.37,0.37,0.51,1.3,0.42,2.78c-0.09,1.48-0.42,2.6-0.97,3.33
		c-3.71,5.19-6.99,11.11-9.86,17.78c-2.87,6.67-5,12.55-6.39,17.64c-1.39,5.1-3.1,11.76-5.14,20c-2.04,8.24-3.61,14.4-4.72,18.47
		c-0.19,0.74-0.65,2.4-1.39,5c-0.74,2.59-1.3,4.35-1.67,5.28c-0.37,0.92-0.97,2.45-1.81,4.58c-0.83,2.13-1.67,3.65-2.5,4.58
		c-0.83,0.92-1.94,2.04-3.33,3.33c-1.39,1.29-3.01,2.17-4.86,2.64c-1.85,0.46-3.89,0.69-6.11,0.69c-7.96,0-14.12-2.5-18.47-7.5
		c-4.35-5-7.46-11.58-9.31-19.72c-9.08-44.45-7.6-96.76,4.44-156.95c1.48-5.92,1.53-10,0.14-12.22c-1.39-2.22-5.33-3.06-11.81-2.5
		c-6.67,0.93-14.21,1.25-22.64,0.97c-8.42-0.28-15.88-1.81-22.36-4.58c-0.18,0-0.79-0.18-1.81-0.56c-1.02-0.37-1.71-0.65-2.08-0.83
		c-0.37-0.18-1.02-0.56-1.94-1.11c-0.92-0.56-1.43-1.02-1.53-1.39c-0.09-0.37-0.32-0.92-0.69-1.67c-0.37-0.74-0.28-1.48,0.28-2.22
		c1.48-3.52,5.1-3.52,10.83,0c4.08,2.6,8.71,4.35,13.89,5.28c5.19,0.93,9.44,1.3,12.78,1.11c3.33-0.18,8.24-0.69,14.72-1.53
		c6.48-0.83,10.92-1.34,13.33-1.53c1.29,0,2.31-0.32,3.06-0.97c0.74-0.65,1.2-1.25,1.39-1.81c0.18-0.56,0.46-1.48,0.83-2.78
		c0.37-1.29,0.56-2.13,0.56-2.5c6.29-19.07,11.67-35.09,16.11-48.06c2.96-8.15,7.22-11.29,12.78-9.44c1.67,0.56,2.82,1.44,3.47,2.64
		c0.65,1.21,0.92,2.27,0.83,3.19c-0.09,0.93-0.42,2.32-0.97,4.17c-0.56,1.85-0.83,3.15-0.83,3.89c-3.33,18.71-6.02,31.21-8.06,37.5
		c-1.48,5.37-1.53,8.75-0.14,10.14c1.39,1.39,4.77,1.62,10.14,0.69C1106.46,208.67,1118.22,207.19,1135.44,205.52z"/>
	<path class="st1" d="M1218.22,389.97c1.48,4.07,0.65,6.48-2.5,7.22c-5.93,1.11-9.91-1.3-11.95-7.22
		c-4.82-13.33-7.87-29.91-9.17-49.72c-0.19-2.4-0.23-4.63-0.14-6.67c0.09-2.04,0-4.21-0.28-6.53c-0.28-2.31-0.97-4.4-2.08-6.25
		c-7.6,9.82-11.58,15.1-11.94,15.83c-0.37,0.37-1.3,1.53-2.78,3.47c-1.48,1.94-2.46,3.24-2.92,3.89c-0.46,0.65-1.35,1.81-2.64,3.47
		c-1.3,1.67-2.32,2.92-3.05,3.75c-0.74,0.83-1.71,1.94-2.92,3.33c-1.21,1.39-2.32,2.55-3.33,3.47c-1.02,0.93-2.13,1.94-3.33,3.06
		c-1.21,1.11-2.36,2.13-3.47,3.06c-8.33,6.48-18.43,7.4-30.28,2.78c-8.71-3.33-12.96-10.56-12.78-21.67
		c0.74-29.45,6.76-52.59,18.06-69.45c6.11-9.07,13.7-15.28,22.78-18.61c9.07-3.33,18.89-3.52,29.44-0.56
		c9.07,2.6,16.43,7.87,22.08,15.83c5.65,7.96,8.47,17.13,8.47,27.5c0,0.74,0,5.83,0,15.28c0,9.44,0,14.54,0,15.28
		c0,2.6,0,7.41,0,14.44c0,7.04,0.04,12.36,0.14,15.97c0.09,3.61,0.51,8.24,1.25,13.89C1215.63,380.48,1216.74,385.53,1218.22,389.97
		z M1194.06,291.08c1.29-2.4,2.17-4.58,2.64-6.53c0.46-1.94,0.6-3.61,0.42-5c-0.19-1.39-0.79-2.78-1.8-4.17
		c-1.02-1.39-2.08-2.54-3.2-3.47c-1.11-0.92-2.69-2.04-4.72-3.33c-7.78-5.18-14.4-7.08-19.86-5.69
		c-5.46,1.39-10.51,6.25-15.14,14.58c-3.52,6.11-6.25,13.15-8.19,21.11c-1.95,7.96-3.2,14.58-3.75,19.86
		c-0.56,5.28-1.11,12.92-1.67,22.92c0.18,1.11,0.14,2.73-0.14,4.86c-0.28,2.13-0.51,4.03-0.7,5.69c-0.19,1.67,0.04,3.29,0.7,4.86
		c0.65,1.58,1.81,2.64,3.47,3.19c0.92,0.74,1.99,0.88,3.19,0.42c1.2-0.46,2.17-0.83,2.92-1.11c0.74-0.28,1.71-1.02,2.92-2.22
		c1.2-1.2,2.08-2.17,2.64-2.92c0.56-0.74,1.34-1.81,2.36-3.19c1.02-1.39,1.81-2.36,2.36-2.92c2.4-2.78,4.77-5.79,7.08-9.03
		c2.31-3.24,4.35-6.25,6.11-9.03c1.76-2.78,3.75-6.02,5.97-9.72c2.22-3.7,4.03-6.81,5.42-9.31c1.39-2.5,3.24-5.88,5.56-10.14
		C1190.95,296.55,1192.76,293.3,1194.06,291.08z"/>
	<path class="st1" d="M1390.17,310.53c0.92,1.11,0.92,2.78,0,5c-0.93,2.22-2.36,4.91-4.31,8.06c-1.94,3.15-3.2,5.46-3.75,6.94
		c-7.96,20.37-13.8,46.95-17.5,79.72c-0.56,5-1.02,8.15-1.39,9.44c-0.56,1.11-1.21,3.19-1.94,6.25c-0.74,3.06-1.44,5.28-2.08,6.67
		c-0.65,1.39-1.9,2.87-3.75,4.44c-1.85,1.57-4.26,2.54-7.22,2.92c-10.56,1.11-18.99-3.98-25.28-15.28c-1.48-2.6-2.92-5.37-4.31-8.33
		c-1.39-2.96-2.55-5.65-3.47-8.06c-0.93-2.41-1.94-5.37-3.06-8.89c-1.11-3.52-1.99-6.25-2.64-8.19c-0.65-1.94-1.44-4.96-2.36-9.03
		c-0.93-4.08-1.58-6.94-1.94-8.61c-0.37-1.67-1.07-4.77-2.08-9.31c-1.02-4.54-1.62-7.45-1.81-8.75c-0.55-2.04-1.11-4.9-1.67-8.61
		c-0.56-3.7-1.16-7.17-1.81-10.42c-0.65-3.24-1.62-6.53-2.92-9.86c-7.22,15.56-11.21,24.17-11.94,25.83
		c-1.3,2.6-3.52,6.58-6.67,11.94c-4.63,8.33-9.54,14.4-14.72,18.19c-5.19,3.79-11.76,4.49-19.72,2.08
		c-2.78-0.93-5.14-2.13-7.08-3.61c-1.94-1.48-3.47-2.96-4.58-4.44c-1.11-1.48-2.04-3.43-2.78-5.83c-0.74-2.4-1.21-4.4-1.39-5.97
		c-0.19-1.57-0.42-3.84-0.69-6.81c-0.28-2.96-0.51-5-0.69-6.11c0-0.92,0.09-2.31,0.28-4.17c0.74-9.44,1.34-16.67,1.81-21.67
		c0.46-5,1.43-11.25,2.92-18.75c1.48-7.5,3.42-14.21,5.83-20.14c9.44-24.07,24.72-35.65,45.83-34.72c4.07,0.19,6.62-0.56,7.64-2.22
		c1.02-1.67,1.53-4.54,1.53-8.61c-0.93-42.59,2.68-79.35,10.83-110.28c2.96-11.48,7.31-20.92,13.06-28.33
		c5.92-7.78,11.99-11.29,18.19-10.56c6.2,0.74,11.25,5.65,15.14,14.72c2.4,5.74,4.07,11.58,5,17.5c0.92,5.93,1.06,12.18,0.42,18.75
		c-0.65,6.58-1.39,12.22-2.22,16.94s-2.18,10.79-4.03,18.19c-8.33,35.37-19.17,64.72-32.5,88.06c-1.67,3.15-2.73,6.76-3.2,10.83
		c-0.46,4.08-0.51,7.64-0.14,10.69c0.37,3.06,1.02,7.04,1.94,11.94c0.92,4.91,1.57,8.57,1.94,10.97c4.63,40.19,12.96,76.2,25,108.06
		c0.18,0.37,0.51,1.48,0.97,3.33c0.46,1.85,0.88,3.19,1.25,4.03c0.37,0.83,1.06,1.62,2.08,2.36c1.02,0.74,2.17,1.02,3.47,0.83
		c0.56-0.19,1.02-0.37,1.39-0.56c0.37-0.19,0.74-0.46,1.11-0.83c0.37-0.37,0.65-0.74,0.83-1.11c0.18-0.37,0.42-0.88,0.69-1.53
		c0.28-0.65,0.46-1.16,0.56-1.53c0.09-0.37,0.23-0.97,0.42-1.81c0.18-0.83,0.32-1.44,0.42-1.81c0.09-0.37,0.23-1.02,0.42-1.94
		c0.18-0.93,0.28-1.48,0.28-1.67c0.92-5,2.13-13.15,3.61-24.45c1.48-11.3,2.78-19.82,3.89-25.56c2.4-11.85,6.02-23.24,10.83-34.17
		c0.18-0.37,0.56-1.25,1.11-2.64c0.56-1.39,1.06-2.59,1.53-3.61c0.46-1.02,1.11-2.36,1.94-4.03c0.83-1.67,1.57-3.01,2.22-4.03
		c0.65-1.02,1.48-2.22,2.5-3.61c1.02-1.39,1.95-2.36,2.78-2.92s1.81-1.06,2.92-1.53C1388.22,309.93,1389.24,309.97,1390.17,310.53z
		 M1292.67,283.03c0.37-2.59,0.46-5.28,0.28-8.06c0-0.18-0.05-0.83-0.14-1.94c-0.1-1.11-0.19-1.81-0.28-2.08
		c-0.1-0.28-0.19-0.88-0.28-1.81c-0.1-0.92-0.23-1.57-0.42-1.94c-0.19-0.37-0.37-0.92-0.56-1.67c-0.19-0.74-0.46-1.25-0.83-1.53
		c-0.37-0.28-0.79-0.65-1.25-1.11c-0.46-0.46-1.02-0.88-1.67-1.25c-0.65-0.37-1.35-0.65-2.08-0.83c-4.08-1.11-7.87-0.88-11.39,0.69
		c-3.52,1.58-6.53,4.17-9.03,7.78c-2.5,3.61-4.54,7.13-6.11,10.56c-1.58,3.43-2.92,7.08-4.03,10.97
		c-8.15,26.11-10.19,51.58-6.11,76.39c0,0.19,0.83,2.13,2.5,5.83c0.37-0.19,0.97-0.46,1.81-0.83c0.83-0.37,1.57-0.74,2.22-1.11
		c0.65-0.37,1.06-0.83,1.25-1.39c8.7-12.96,16.57-28.52,23.61-46.67c2.78-7.04,5.65-15.18,8.61-24.45
		C1291,291.91,1292.29,286.73,1292.67,283.03z M1317.67,124.69c-3.52,13.15-5.88,27.36-7.08,42.64
		c-1.21,15.28-1.58,29.03-1.11,41.25c0.46,12.22,1.43,26.67,2.92,43.33c10.37-30.18,15.83-46.29,16.39-48.33
		c4.81-15.18,8.42-28.7,10.83-40.56c2.4-11.85,3.24-23.7,2.5-35.56c0-0.18-0.1-0.46-0.28-0.83c-0.19-3.33-0.37-5.97-0.56-7.92
		c-0.19-1.94-0.65-4.35-1.39-7.22c-0.74-2.87-1.85-5.09-3.33-6.67c-1.48-1.57-3.24-2.45-5.28-2.64c-1.3-0.18-2.46-0.04-3.47,0.42
		c-1.02,0.46-1.94,1.16-2.78,2.08c-0.83,0.93-1.53,1.94-2.08,3.06c-0.56,1.11-1.11,2.5-1.67,4.17c-0.56,1.67-1.02,3.1-1.39,4.31
		c-0.37,1.21-0.74,2.73-1.11,4.58C1318.41,122.65,1318.04,123.95,1317.67,124.69z"/>
	<path class="st1" d="M1474.61,389.97c1.48,4.07,0.65,6.48-2.5,7.22c-5.93,1.11-9.91-1.3-11.95-7.22
		c-4.82-13.33-7.87-29.91-9.17-49.72c-0.19-2.4-0.23-4.63-0.14-6.67c0.09-2.04,0-4.21-0.28-6.53c-0.28-2.31-0.97-4.4-2.08-6.25
		c-7.6,9.82-11.58,15.1-11.94,15.83c-0.37,0.37-1.3,1.53-2.78,3.47c-1.48,1.94-2.46,3.24-2.92,3.89c-0.46,0.65-1.35,1.81-2.64,3.47
		c-1.3,1.67-2.32,2.92-3.05,3.75c-0.74,0.83-1.71,1.94-2.92,3.33c-1.21,1.39-2.32,2.55-3.33,3.47c-1.02,0.93-2.13,1.94-3.33,3.06
		c-1.21,1.11-2.36,2.13-3.47,3.06c-8.33,6.48-18.43,7.4-30.28,2.78c-8.71-3.33-12.96-10.56-12.78-21.67
		c0.74-29.45,6.76-52.59,18.06-69.45c6.11-9.07,13.7-15.28,22.78-18.61c9.07-3.33,18.89-3.52,29.44-0.56
		c9.07,2.6,16.43,7.87,22.08,15.83c5.65,7.96,8.47,17.13,8.47,27.5c0,0.74,0,5.83,0,15.28c0,9.44,0,14.54,0,15.28
		c0,2.6,0,7.41,0,14.44c0,7.04,0.04,12.36,0.14,15.97c0.09,3.61,0.51,8.24,1.25,13.89C1472.02,380.48,1473.13,385.53,1474.61,389.97
		z M1450.45,291.08c1.29-2.4,2.17-4.58,2.64-6.53c0.46-1.94,0.6-3.61,0.42-5c-0.19-1.39-0.79-2.78-1.8-4.17
		c-1.02-1.39-2.08-2.54-3.2-3.47c-1.11-0.92-2.69-2.04-4.72-3.33c-7.78-5.18-14.4-7.08-19.86-5.69
		c-5.46,1.39-10.51,6.25-15.14,14.58c-3.52,6.11-6.25,13.15-8.19,21.11c-1.95,7.96-3.2,14.58-3.75,19.86
		c-0.56,5.28-1.11,12.92-1.67,22.92c0.18,1.11,0.14,2.73-0.14,4.86c-0.28,2.13-0.51,4.03-0.7,5.69c-0.19,1.67,0.04,3.29,0.7,4.86
		c0.65,1.58,1.81,2.64,3.47,3.19c0.92,0.74,1.99,0.88,3.19,0.42c1.2-0.46,2.17-0.83,2.92-1.11c0.74-0.28,1.71-1.02,2.92-2.22
		c1.2-1.2,2.08-2.17,2.64-2.92c0.56-0.74,1.34-1.81,2.36-3.19c1.02-1.39,1.81-2.36,2.36-2.92c2.4-2.78,4.77-5.79,7.08-9.03
		c2.31-3.24,4.35-6.25,6.11-9.03c1.76-2.78,3.75-6.02,5.97-9.72c2.22-3.7,4.03-6.81,5.42-9.31c1.39-2.5,3.24-5.88,5.56-10.14
		C1447.34,296.55,1449.15,293.3,1450.45,291.08z"/>
</g>
</svg>
